<svg xmlns="http://www.w3.org/2000/svg" xmlns:xlink="http://www.w3.org/1999/xlink" width="1920" zoomAndPan="magnify" viewBox="0 0 1440 809.999993" height="1080" preserveAspectRatio="xMidYMid meet" version="1.0"><defs><filter x="0%" y="0%" width="100%" height="100%" id="6a5c92773d"><feColorMatrix values="0 0 0 0 1 0 0 0 0 1 0 0 0 0 1 0 0 0 1 0" color-interpolation-filters="sRGB"/></filter><mask id="86e340fc6d"><g filter="url(#6a5c92773d)"><rect x="-144" width="1728" fill="#000000" y="-80.999999" height="971.999992" fill-opacity="0.68"/></g></mask><clipPath id="b7bdea039c"><path d="M 0.523438 0 L 271 0 L 271 324.496094 L 0.523438 324.496094 Z M 0.523438 0 " clip-rule="nonzero"/></clipPath><clipPath id="4ec5b89718"><rect x="0" width="271" y="0" height="325"/></clipPath><mask id="cc7d5736b7"><g filter="url(#6a5c92773d)"><rect x="-144" width="1728" fill="#000000" y="-80.999999" height="971.999992" fill-opacity="0.68"/></g></mask><clipPath id="6db5fe5aac"><path d="M 0.515625 0.179688 L 268 0.179688 L 268 318 L 0.515625 318 Z M 0.515625 0.179688 " clip-rule="nonzero"/></clipPath><clipPath id="93f83a6fd4"><rect x="0" width="268" y="0" height="318"/></clipPath><mask id="68351397ed"><g filter="url(#6a5c92773d)"><rect x="-144" width="1728" fill="#000000" y="-80.999999" height="971.999992" fill-opacity="0.68"/></g></mask><clipPath id="6a5340601b"><path d="M 0 0 L 279.683594 0 L 279.683594 298.523438 L 0 298.523438 Z M 0 0 " clip-rule="nonzero"/></clipPath><clipPath id="6fe3d2daba"><path d="M 0 0 L 279.683594 0 L 279.683594 298.523438 L 0 298.523438 Z M 0 0 " clip-rule="nonzero"/></clipPath><clipPath id="7804430096"><rect x="0" width="280" y="0" height="299"/></clipPath><clipPath id="28850f6876"><rect x="0" width="281" y="0" height="299"/></clipPath><mask id="c9c7e8f0e6"><g filter="url(#6a5c92773d)"><rect x="-144" width="1728" fill="#000000" y="-80.999999" height="971.999992" fill-opacity="0.68"/></g></mask><clipPath id="52544c93a5"><path d="M 0 0.179688 L 276.683594 0.179688 L 276.683594 306 L 0 306 Z M 0 0.179688 " clip-rule="nonzero"/></clipPath><clipPath id="e56165e47b"><rect x="0" width="278" y="0" height="306"/></clipPath><mask id="0010092c2a"><g filter="url(#6a5c92773d)"><rect x="-144" width="1728" fill="#000000" y="-80.999999" height="971.999992" fill-opacity="0.68"/></g></mask><clipPath id="a9df98dfcc"><path d="M 0.332031 0 L 304.832031 0 L 304.832031 138.457031 L 0.332031 138.457031 Z M 0.332031 0 " clip-rule="nonzero"/></clipPath><clipPath id="bf00aada10"><rect x="0" width="306" y="0" height="139"/></clipPath><mask id="bae2398ff3"><g filter="url(#6a5c92773d)"><rect x="-144" width="1728" fill="#000000" y="-80.999999" height="971.999992" fill-opacity="0.68"/></g></mask><clipPath id="2011e99150"><path d="M 1.203125 0.796875 L 351.453125 0.796875 L 351.453125 202 L 1.203125 202 Z M 1.203125 0.796875 " clip-rule="nonzero"/></clipPath><clipPath id="3fcbd44a15"><rect x="0" width="352" y="0" height="202"/></clipPath></defs><rect x="-144" width="1728" fill="#ffffff" y="-80.999999" height="971.999992" fill-opacity="1"/><rect x="-144" width="1728" fill="#ffffff" y="-80.999999" height="971.999992" fill-opacity="1"/><g mask="url(#86e340fc6d)"><g transform="matrix(1, 0, 0, 1, 1169, 0.000000000000039746)"><g clip-path="url(#4ec5b89718)"><g clip-path="url(#b7bdea039c)"><path fill="#1a2247" d="M 0.632812 126.601562 C 0.582031 125.960938 0.546875 125.316406 0.523438 124.667969 C 0.742188 124.667969 0.964844 124.664062 1.1875 124.664062 L 1.191406 124.664062 C 1.613281 124.664062 2.035156 124.671875 2.457031 124.679688 C 2.679688 124.6875 2.902344 124.691406 3.121094 124.699219 C 27.371094 125.597656 47.359375 143.285156 51.785156 166.46875 C 56.273438 142.945312 76.792969 125.074219 101.523438 124.671875 C 101.582031 124.671875 101.644531 124.671875 101.703125 124.667969 C 101.84375 124.667969 101.984375 124.667969 102.125 124.664062 C 102.148438 124.351562 102.167969 124.042969 102.195312 123.730469 C 102.347656 121.886719 102.59375 120.070312 102.933594 118.289062 C 107.085938 96.554688 124.914062 79.644531 147.109375 76.882812 C 124.914062 74.117188 107.085938 57.210938 102.933594 35.472656 C 98.785156 57.210938 80.957031 74.117188 58.761719 76.882812 C 57.121094 77.085938 55.457031 77.214844 53.769531 77.257812 C 53.671875 77.261719 53.574219 77.265625 53.476562 77.265625 C 53.101562 77.273438 52.722656 77.277344 52.34375 77.277344 C 52.171875 77.277344 52.003906 77.277344 51.835938 77.277344 C 51.820312 77.015625 51.804688 76.75 51.792969 76.488281 C 51.777344 76.105469 51.761719 75.726562 51.753906 75.339844 C 51.746094 74.953125 51.742188 74.5625 51.742188 74.167969 C 51.742188 70.855469 52.054688 67.609375 52.65625 64.46875 C 56.726562 43.152344 73.953125 26.480469 95.546875 23.238281 C 74.585938 20.132812 57.71875 4.378906 52.972656 -16.003906 C 52.550781 -17.820312 52.226562 -19.671875 52 -21.558594 C 51.910156 -22.296875 51.839844 -23.042969 51.78125 -23.796875 C 51.734375 -24.4375 51.699219 -25.082031 51.671875 -25.726562 C 51.894531 -25.730469 52.117188 -25.730469 52.339844 -25.730469 L 52.34375 -25.730469 C 52.765625 -25.730469 53.1875 -25.726562 53.609375 -25.714844 C 53.832031 -25.710938 54.050781 -25.703125 54.273438 -25.695312 C 78.519531 -24.800781 98.507812 -7.109375 102.933594 16.070312 C 107.425781 -7.453125 127.941406 -25.324219 152.671875 -25.726562 C 152.734375 -25.726562 152.796875 -25.726562 152.855469 -25.726562 C 153.078125 -25.730469 153.300781 -25.730469 153.527344 -25.730469 C 153.886719 -25.730469 154.25 -25.726562 154.609375 -25.722656 C 154.667969 -25.71875 154.730469 -25.71875 154.792969 -25.714844 C 154.816406 -25.066406 154.855469 -24.421875 154.90625 -23.78125 C 154.769531 -23.785156 154.632812 -23.785156 154.5 -23.789062 C 154.351562 -21.832031 154.09375 -19.902344 153.730469 -18.011719 C 149.664062 3.304688 132.4375 19.976562 110.839844 23.222656 C 132.484375 26.425781 149.761719 43.117188 153.839844 64.46875 C 157.90625 43.152344 175.132812 26.480469 196.730469 23.238281 C 198.785156 22.929688 200.878906 22.742188 203.003906 22.683594 C 203.101562 22.679688 203.199219 22.679688 203.296875 22.675781 C 203.671875 22.667969 204.050781 22.664062 204.429688 22.664062 C 204.601562 22.664062 204.769531 22.664062 204.9375 22.667969 C 204.960938 23.039062 204.980469 23.414062 204.992188 23.789062 C 205.003906 24.058594 205.011719 24.328125 205.019531 24.601562 C 205.027344 24.992188 205.03125 25.382812 205.03125 25.773438 C 205.03125 29.089844 204.71875 32.332031 204.117188 35.472656 C 199.96875 57.210938 182.140625 74.117188 159.945312 76.882812 C 182.140625 79.644531 199.96875 96.554688 204.117188 118.289062 C 204.457031 120.074219 204.707031 121.894531 204.859375 123.738281 C 204.890625 124.121094 204.917969 124.5 204.9375 124.882812 C 204.953125 125.144531 204.96875 125.410156 204.980469 125.671875 C 204.796875 125.671875 204.613281 125.675781 204.429688 125.675781 C 204.039062 125.675781 203.644531 125.671875 203.253906 125.660156 C 203.183594 125.660156 203.113281 125.65625 203.042969 125.65625 C 201.34375 125.609375 199.664062 125.484375 198.011719 125.277344 C 175.816406 122.511719 157.988281 105.605469 153.839844 83.871094 C 149.6875 105.605469 131.859375 122.511719 109.667969 125.277344 C 107.808594 125.507812 105.921875 125.640625 104.007812 125.667969 C 103.9375 125.671875 103.867188 125.671875 103.796875 125.671875 C 103.761719 125.671875 103.726562 125.671875 103.6875 125.671875 C 103.707031 125.988281 103.730469 126.304688 103.753906 126.617188 C 103.617188 126.613281 103.484375 126.609375 103.347656 126.609375 C 103.199219 128.566406 102.941406 130.496094 102.582031 132.386719 C 98.511719 153.703125 81.285156 170.375 59.6875 173.617188 C 81.335938 176.820312 98.609375 193.515625 102.6875 214.867188 C 106.757812 193.550781 123.984375 176.875 145.578125 173.632812 C 147.632812 173.324219 149.726562 173.140625 151.851562 173.082031 C 151.949219 173.078125 152.046875 173.074219 152.144531 173.074219 C 152.519531 173.066406 152.898438 173.0625 153.277344 173.0625 C 153.449219 173.0625 153.617188 173.0625 153.789062 173.0625 C 153.789062 173.085938 153.789062 173.105469 153.792969 173.125 C 153.847656 173.125 153.90625 173.128906 153.960938 173.128906 C 154.183594 173.132812 154.40625 173.140625 154.628906 173.148438 C 178.875 174.042969 198.863281 191.734375 203.289062 214.917969 C 207.78125 191.390625 228.296875 173.523438 253.027344 173.121094 C 253.085938 173.121094 253.148438 173.117188 253.210938 173.117188 C 253.433594 173.117188 253.65625 173.113281 253.878906 173.113281 C 254.242188 173.113281 254.601562 173.117188 254.960938 173.125 C 255.023438 173.125 255.082031 173.128906 255.144531 173.128906 C 255.171875 173.777344 255.207031 174.425781 255.257812 175.066406 C 255.125 175.0625 254.988281 175.058594 254.851562 175.058594 C 254.703125 177.015625 254.445312 178.945312 254.085938 180.835938 C 250.015625 202.152344 232.789062 218.824219 211.191406 222.066406 C 232.839844 225.269531 250.117188 241.960938 254.191406 263.3125 C 258.261719 241.996094 275.488281 225.324219 297.085938 222.082031 C 299.136719 221.773438 301.230469 221.585938 303.355469 221.53125 C 303.453125 221.527344 303.550781 221.523438 303.648438 221.523438 C 304.027344 221.515625 304.402344 221.511719 304.785156 221.511719 C 304.953125 221.511719 305.121094 221.511719 305.292969 221.511719 C 305.316406 221.886719 305.332031 222.261719 305.347656 222.636719 C 305.359375 222.90625 305.367188 223.175781 305.371094 223.445312 C 305.378906 223.835938 305.386719 224.226562 305.386719 224.617188 C 305.386719 227.933594 305.070312 231.179688 304.472656 234.320312 C 300.320312 256.054688 282.492188 272.964844 260.296875 275.726562 C 282.492188 278.492188 300.320312 295.398438 304.472656 317.136719 C 304.8125 318.921875 305.0625 320.738281 305.210938 322.585938 C 305.242188 322.964844 305.269531 323.347656 305.292969 323.730469 C 305.308594 323.992188 305.320312 324.253906 305.332031 324.515625 C 305.152344 324.519531 304.96875 324.519531 304.785156 324.519531 C 304.390625 324.519531 304 324.515625 303.609375 324.507812 C 303.539062 324.503906 303.46875 324.503906 303.398438 324.503906 C 301.699219 324.457031 300.019531 324.328125 298.363281 324.125 C 276.171875 321.359375 258.339844 304.453125 254.191406 282.714844 C 250.042969 304.453125 232.214844 321.359375 210.019531 324.125 C 208.164062 324.355469 206.273438 324.488281 204.363281 324.515625 C 204.292969 324.515625 204.222656 324.515625 204.152344 324.515625 C 203.96875 324.519531 203.785156 324.519531 203.601562 324.519531 C 203.207031 324.519531 202.816406 324.515625 202.425781 324.507812 C 202.4375 324.25 202.453125 323.996094 202.464844 323.738281 C 202.488281 323.351562 202.515625 322.960938 202.546875 322.574219 C 202.699219 320.734375 202.949219 318.917969 203.289062 317.132812 C 207.4375 295.398438 225.265625 278.492188 247.460938 275.726562 C 225.265625 272.964844 207.4375 256.054688 203.289062 234.320312 C 199.140625 256.054688 181.308594 272.964844 159.117188 275.726562 C 157.472656 275.933594 155.808594 276.058594 154.125 276.105469 C 154.027344 276.109375 153.929688 276.109375 153.832031 276.113281 C 153.453125 276.121094 153.078125 276.125 152.695312 276.125 C 152.527344 276.125 152.359375 276.125 152.1875 276.121094 C 152.1875 276.101562 152.183594 276.082031 152.183594 276.058594 C 152.15625 276.058594 152.128906 276.058594 152.105469 276.058594 C 152.035156 276.058594 151.964844 276.054688 151.894531 276.054688 C 150.191406 276.007812 148.515625 275.882812 146.859375 275.675781 C 124.664062 272.910156 106.835938 256.003906 102.6875 234.269531 C 98.539062 256.003906 80.707031 272.910156 58.515625 275.675781 C 56.65625 275.90625 54.769531 276.039062 52.855469 276.066406 C 52.785156 276.066406 52.714844 276.066406 52.644531 276.070312 C 52.464844 276.070312 52.28125 276.070312 52.097656 276.070312 C 51.703125 276.070312 51.3125 276.066406 50.921875 276.058594 C 50.933594 275.800781 50.945312 275.546875 50.960938 275.289062 C 50.984375 274.902344 51.011719 274.515625 51.042969 274.128906 C 51.195312 272.285156 51.441406 270.46875 51.785156 268.6875 C 55.933594 246.949219 73.761719 230.042969 95.957031 227.277344 C 73.761719 224.515625 55.933594 207.605469 51.785156 185.871094 C 47.632812 207.605469 29.804688 224.515625 7.609375 227.277344 C 5.96875 227.484375 4.304688 227.609375 2.617188 227.65625 C 2.523438 227.660156 2.425781 227.660156 2.328125 227.664062 C 1.949219 227.671875 1.570312 227.675781 1.191406 227.675781 C 1.023438 227.675781 0.851562 227.675781 0.683594 227.671875 C 0.667969 227.410156 0.652344 227.148438 0.640625 226.886719 C 0.625 226.503906 0.613281 226.121094 0.605469 225.738281 C 0.59375 225.347656 0.589844 224.957031 0.589844 224.566406 C 0.589844 221.25 0.90625 218.007812 1.503906 214.867188 C 5.574219 193.550781 22.800781 176.875 44.398438 173.632812 C 23.433594 170.53125 6.566406 154.777344 1.824219 134.390625 C 1.398438 132.574219 1.074219 130.722656 0.847656 128.839844 C 0.761719 128.097656 0.6875 127.351562 0.632812 126.601562 Z M 49.480469 171.109375 C 47.519531 146.183594 29.472656 128.796875 4.265625 127.886719 C 4.121094 127.882812 3.972656 127.875 3.828125 127.871094 C 3.886719 128.617188 3.960938 129.359375 4.050781 130.09375 C 7.03125 154.109375 24.828125 170.433594 49.480469 171.109375 Z M 99.902344 128.023438 C 74.300781 128.515625 56.3125 145.65625 54.335938 170.867188 C 79.9375 170.378906 97.925781 153.234375 99.902344 128.023438 Z M 151.507812 79.554688 C 125.988281 80.003906 107.527344 97.398438 105.390625 122.476562 C 130.914062 122.027344 149.371094 104.636719 151.507812 79.554688 Z M 105.699219 26.359375 C 105.691406 26.75 105.6875 27.140625 105.6875 27.53125 C 105.6875 54.648438 124.664062 73.824219 151.691406 74.210938 C 151.703125 73.820312 151.707031 73.429688 151.707031 73.039062 C 151.707031 45.921875 132.726562 26.746094 105.699219 26.359375 Z M 54.789062 74.199219 C 81.527344 73.484375 100.449219 54.1875 100.449219 27.277344 C 100.449219 26.890625 100.445312 26.507812 100.4375 26.121094 C 73.699219 26.835938 54.773438 46.128906 54.773438 73.039062 C 54.773438 73.425781 54.777344 73.8125 54.789062 74.199219 Z M 55.355469 -22.148438 C 55.414062 -21.402344 55.488281 -20.660156 55.578125 -19.925781 C 58.558594 4.085938 75.351562 19.484375 100.003906 20.15625 C 98.042969 -4.769531 81 -21.222656 55.796875 -22.132812 C 55.648438 -22.140625 55.5 -22.144531 55.355469 -22.148438 Z M 150.050781 -21.359375 C 124.449219 -20.871094 106.964844 -4.1875 104.984375 21.023438 C 130.585938 20.53125 148.070312 3.851562 150.050781 -21.359375 Z M 201.375 26.371094 C 174.636719 27.085938 156.566406 45.503906 156.566406 72.414062 C 156.566406 72.800781 156.574219 73.183594 156.582031 73.570312 C 183.320312 72.855469 201.386719 54.441406 201.386719 27.53125 C 201.386719 27.144531 201.382812 26.757812 201.375 26.371094 Z M 202.917969 123.71875 C 200.789062 98.851562 182.027344 80.957031 156.796875 80.199219 C 158.921875 105.066406 177.683594 122.960938 202.917969 123.71875 Z M 100.417969 224.480469 C 100.425781 224.09375 100.429688 223.703125 100.429688 223.3125 C 100.429688 196.191406 80.835938 176.390625 53.804688 176.003906 C 53.796875 176.394531 53.792969 176.785156 53.792969 177.175781 C 53.792969 204.292969 73.390625 224.097656 100.417969 224.480469 Z M 150.679688 176.269531 C 123.941406 176.980469 105.292969 196.027344 105.292969 222.933594 C 105.292969 223.320312 105.296875 223.707031 105.304688 224.09375 C 132.046875 223.378906 150.691406 204.335938 150.691406 177.425781 C 150.691406 177.039062 150.6875 176.652344 150.679688 176.269531 Z M 200.105469 218.679688 C 198.148438 193.753906 181.101562 177.371094 155.898438 176.460938 C 155.75 176.457031 155.605469 176.449219 155.457031 176.445312 C 155.515625 177.191406 155.589844 177.933594 155.683594 178.667969 C 158.660156 202.683594 175.453125 218.003906 200.105469 218.679688 Z M 251.65625 176.234375 C 226.058594 176.726562 208.570312 193.351562 206.59375 218.5625 C 232.195312 218.074219 249.679688 201.449219 251.65625 176.234375 Z M 252.417969 273.433594 C 252.425781 273.042969 252.429688 272.652344 252.429688 272.261719 C 252.429688 245.144531 232.832031 225.339844 205.804688 224.953125 C 205.796875 225.34375 205.792969 225.734375 205.792969 226.125 C 205.792969 253.242188 225.390625 273.046875 252.417969 273.433594 Z M 302.308594 224.589844 C 275.570312 225.304688 256.1875 245.101562 256.1875 272.011719 C 256.1875 272.398438 256.191406 272.785156 256.203125 273.167969 C 282.941406 272.457031 302.320312 252.660156 302.320312 225.75 C 302.320312 225.363281 302.316406 224.976562 302.308594 224.589844 Z M 301.765625 321.140625 C 299.636719 296.273438 281.503906 278.921875 256.273438 278.164062 C 258.398438 303.03125 276.53125 320.382812 301.765625 321.140625 Z M 207 320.234375 C 232.519531 319.785156 250.101562 303.054688 252.238281 277.976562 C 226.714844 278.425781 209.136719 295.15625 207 320.234375 Z M 155.261719 272.917969 C 182 272.203125 200.886719 252.910156 200.886719 226 C 200.886719 225.613281 200.882812 225.226562 200.875 224.839844 C 174.136719 225.554688 155.25 244.851562 155.25 271.761719 C 155.25 272.148438 155.253906 272.53125 155.261719 272.917969 Z M 105.519531 230.46875 C 107.648438 255.335938 124.902344 271.816406 150.132812 272.574219 C 148.007812 247.707031 130.75 231.226562 105.519531 230.46875 Z M 54.363281 272.75 C 79.886719 272.300781 97.71875 255.425781 99.855469 230.347656 C 74.332031 230.796875 56.5 247.671875 54.363281 272.75 Z M 3.269531 224.972656 C 30.007812 224.257812 49.632812 204.210938 49.632812 177.300781 C 49.632812 176.914062 49.628906 176.527344 49.621094 176.140625 C 22.882812 176.855469 3.257812 196.902344 3.257812 223.8125 C 3.257812 224.199219 3.261719 224.585938 3.269531 224.972656 Z M 153.40625 183.175781 C 153.285156 184.082031 153.136719 184.980469 152.964844 185.871094 C 148.816406 207.609375 130.988281 224.515625 108.792969 227.277344 C 130.242188 229.949219 147.613281 245.832031 152.503906 266.515625 C 152.640625 265.4375 152.808594 264.371094 153.007812 263.3125 C 157.078125 241.996094 174.304688 225.324219 195.902344 222.082031 C 175.054688 218.996094 158.257812 203.398438 153.40625 183.175781 Z M 153.40625 183.175781 " fill-opacity="1" fill-rule="evenodd"/></g></g></g></g><g mask="url(#cc7d5736b7)"><g transform="matrix(1, 0, 0, 1, 1172, 492)"><g clip-path="url(#93f83a6fd4)"><g clip-path="url(#6db5fe5aac)"><path fill="#bea04e" d="M 0.625 151.039062 C 0.574219 150.402344 0.539062 149.765625 0.515625 149.125 C 0.734375 149.121094 0.957031 149.121094 1.175781 149.121094 L 1.179688 149.121094 C 1.597656 149.121094 2.015625 149.125 2.429688 149.136719 C 2.652344 149.140625 2.871094 149.148438 3.089844 149.15625 C 27.097656 150.042969 46.890625 167.558594 51.273438 190.511719 C 55.71875 167.21875 76.035156 149.523438 100.523438 149.125 C 100.582031 149.125 100.640625 149.125 100.703125 149.125 C 100.839844 149.121094 100.980469 149.121094 101.121094 149.121094 C 101.140625 148.8125 101.164062 148.503906 101.1875 148.195312 C 101.335938 146.371094 101.582031 144.570312 101.921875 142.804688 C 106.03125 121.285156 123.683594 104.542969 145.660156 101.804688 C 123.683594 99.070312 106.03125 82.328125 101.921875 60.804688 C 97.8125 82.328125 80.15625 99.070312 58.183594 101.804688 C 56.558594 102.007812 54.910156 102.132812 53.238281 102.179688 C 53.144531 102.183594 53.046875 102.183594 52.949219 102.1875 C 52.578125 102.195312 52.203125 102.199219 51.828125 102.199219 C 51.660156 102.199219 51.492188 102.199219 51.324219 102.195312 C 51.308594 101.9375 51.292969 101.675781 51.28125 101.417969 C 51.265625 101.039062 51.253906 100.660156 51.246094 100.28125 C 51.234375 99.894531 51.230469 99.507812 51.230469 99.121094 C 51.230469 95.835938 51.542969 92.625 52.136719 89.515625 C 56.164062 68.410156 73.222656 51.898438 94.605469 48.6875 C 73.847656 45.617188 57.148438 30.019531 52.453125 9.832031 C 52.03125 8.035156 51.710938 6.203125 51.488281 4.335938 C 51.398438 3.601562 51.328125 2.863281 51.269531 2.121094 C 51.222656 1.484375 51.1875 0.847656 51.164062 0.207031 C 51.382812 0.203125 51.601562 0.203125 51.824219 0.203125 L 51.828125 0.203125 C 52.246094 0.203125 52.664062 0.207031 53.078125 0.21875 C 53.300781 0.222656 53.519531 0.230469 53.738281 0.238281 C 77.746094 1.125 97.539062 18.640625 101.921875 41.59375 C 106.367188 18.300781 126.683594 0.609375 151.167969 0.210938 C 151.230469 0.207031 151.289062 0.207031 151.351562 0.207031 C 151.570312 0.203125 151.792969 0.203125 152.015625 0.203125 C 152.371094 0.203125 152.730469 0.207031 153.085938 0.214844 C 153.144531 0.214844 153.207031 0.214844 153.265625 0.21875 C 153.292969 0.859375 153.328125 1.5 153.378906 2.136719 C 153.246094 2.132812 153.109375 2.128906 152.976562 2.125 C 152.832031 4.066406 152.574219 5.976562 152.21875 7.847656 C 148.1875 28.953125 131.132812 45.464844 109.746094 48.671875 C 131.179688 51.847656 148.285156 68.375 152.324219 89.515625 C 156.351562 68.410156 173.410156 51.898438 194.792969 48.6875 C 196.828125 48.382812 198.898438 48.199219 201.003906 48.140625 C 201.101562 48.140625 201.195312 48.136719 201.292969 48.132812 C 201.667969 48.125 202.042969 48.121094 202.417969 48.121094 C 202.585938 48.121094 202.753906 48.125 202.921875 48.125 C 202.941406 48.496094 202.960938 48.863281 202.976562 49.238281 C 202.984375 49.503906 202.992188 49.773438 203 50.039062 C 203.007812 50.425781 203.011719 50.8125 203.011719 51.199219 C 203.011719 54.484375 202.703125 57.695312 202.109375 60.804688 C 198 82.328125 180.34375 99.070312 158.371094 101.804688 C 180.34375 104.542969 198 121.285156 202.109375 142.804688 C 202.445312 144.574219 202.691406 146.375 202.839844 148.203125 C 202.871094 148.578125 202.898438 148.957031 202.921875 149.335938 C 202.9375 149.59375 202.949219 149.855469 202.960938 150.117188 C 202.78125 150.117188 202.597656 150.121094 202.417969 150.121094 C 202.027344 150.121094 201.640625 150.113281 201.253906 150.105469 C 201.183594 150.105469 201.113281 150.101562 201.042969 150.101562 C 199.363281 150.054688 197.699219 149.929688 196.0625 149.726562 C 174.085938 146.988281 156.433594 130.25 152.324219 108.726562 C 148.214844 130.25 130.558594 146.988281 108.585938 149.726562 C 106.746094 149.957031 104.878906 150.085938 102.984375 150.113281 C 102.914062 150.113281 102.84375 150.117188 102.773438 150.117188 C 102.738281 150.117188 102.703125 150.117188 102.667969 150.117188 C 102.6875 150.429688 102.707031 150.742188 102.730469 151.054688 C 102.597656 151.050781 102.464844 151.046875 102.328125 151.042969 C 102.183594 152.984375 101.925781 154.890625 101.570312 156.765625 C 97.539062 177.871094 80.484375 194.378906 59.097656 197.589844 C 80.53125 200.761719 97.640625 217.292969 101.675781 238.433594 C 105.703125 217.324219 122.761719 200.816406 144.144531 197.605469 C 146.179688 197.300781 148.25 197.117188 150.355469 197.058594 C 150.453125 197.054688 150.550781 197.054688 150.644531 197.050781 C 151.019531 197.042969 151.394531 197.039062 151.769531 197.039062 C 151.9375 197.039062 152.105469 197.039062 152.273438 197.042969 C 152.273438 197.0625 152.273438 197.082031 152.277344 197.101562 C 152.332031 197.105469 152.390625 197.105469 152.445312 197.105469 C 152.664062 197.113281 152.886719 197.117188 153.105469 197.128906 C 177.113281 198.011719 196.902344 215.53125 201.285156 238.484375 C 205.734375 215.191406 226.046875 197.496094 250.535156 197.097656 C 250.59375 197.097656 250.65625 197.097656 250.714844 197.097656 C 250.9375 197.09375 251.160156 197.089844 251.378906 197.089844 C 251.738281 197.089844 252.09375 197.09375 252.449219 197.101562 C 252.511719 197.105469 252.570312 197.105469 252.632812 197.105469 C 252.65625 197.75 252.695312 198.390625 252.746094 199.023438 C 252.613281 199.019531 252.476562 199.019531 252.34375 199.015625 C 252.195312 200.953125 251.941406 202.863281 251.582031 204.738281 C 247.554688 225.84375 230.496094 242.351562 209.113281 245.5625 C 230.546875 248.734375 247.652344 265.261719 251.6875 286.40625 C 255.71875 265.296875 272.773438 248.789062 294.160156 245.578125 C 296.191406 245.273438 298.265625 245.089844 300.371094 245.03125 C 300.464844 245.027344 300.5625 245.027344 300.660156 245.023438 C 301.03125 245.015625 301.40625 245.011719 301.78125 245.011719 C 301.949219 245.011719 302.117188 245.011719 302.285156 245.015625 C 302.308594 245.382812 302.328125 245.753906 302.339844 246.125 C 302.351562 246.394531 302.359375 246.660156 302.367188 246.929688 C 302.375 247.316406 302.378906 247.703125 302.378906 248.089844 C 302.378906 251.375 302.066406 254.585938 301.472656 257.695312 C 297.363281 279.21875 279.710938 295.957031 257.734375 298.695312 C 279.710938 301.433594 297.363281 318.171875 301.472656 339.695312 C 301.8125 341.464844 302.058594 343.265625 302.207031 345.09375 C 302.238281 345.46875 302.265625 345.847656 302.285156 346.226562 C 302.300781 346.484375 302.316406 346.746094 302.328125 347.003906 C 302.144531 347.007812 301.964844 347.007812 301.78125 347.007812 C 301.394531 347.007812 301.007812 347.003906 300.621094 346.996094 C 300.550781 346.992188 300.480469 346.992188 300.410156 346.988281 C 298.726562 346.945312 297.066406 346.820312 295.425781 346.617188 C 273.453125 343.878906 255.796875 327.136719 251.6875 305.617188 C 247.582031 327.136719 229.925781 343.878906 207.953125 346.617188 C 206.113281 346.84375 204.242188 346.976562 202.347656 347.003906 C 202.28125 347.003906 202.210938 347.003906 202.140625 347.003906 C 201.960938 347.007812 201.777344 347.007812 201.59375 347.007812 C 201.207031 347.007812 200.820312 347.003906 200.433594 346.996094 C 200.445312 346.742188 200.457031 346.488281 200.472656 346.234375 C 200.496094 345.847656 200.523438 345.464844 200.554688 345.082031 C 200.703125 343.257812 200.949219 341.460938 201.285156 339.695312 C 205.394531 318.171875 223.050781 301.433594 245.023438 298.695312 C 223.050781 295.957031 205.394531 279.21875 201.285156 257.695312 C 197.175781 279.21875 179.523438 295.957031 157.546875 298.695312 C 155.921875 298.898438 154.273438 299.023438 152.605469 299.070312 C 152.507812 299.070312 152.414062 299.074219 152.316406 299.078125 C 151.941406 299.085938 151.570312 299.089844 151.191406 299.089844 C 151.023438 299.089844 150.855469 299.085938 150.6875 299.085938 C 150.6875 299.066406 150.6875 299.046875 150.683594 299.023438 C 150.660156 299.023438 150.632812 299.023438 150.605469 299.023438 C 150.535156 299.023438 150.464844 299.019531 150.394531 299.019531 C 148.714844 298.972656 147.050781 298.847656 145.414062 298.644531 C 123.4375 295.90625 105.785156 279.164062 101.675781 257.644531 C 97.566406 279.164062 79.914062 295.90625 57.9375 298.644531 C 56.097656 298.871094 54.230469 299.003906 52.335938 299.03125 C 52.265625 299.03125 52.195312 299.03125 52.125 299.035156 C 51.945312 299.035156 51.761719 299.035156 51.582031 299.035156 C 51.191406 299.035156 50.804688 299.03125 50.417969 299.023438 C 50.429688 298.769531 50.445312 298.515625 50.457031 298.261719 C 50.480469 297.878906 50.507812 297.492188 50.539062 297.109375 C 50.691406 295.285156 50.933594 293.488281 51.273438 291.722656 C 55.382812 270.203125 73.035156 253.460938 95.011719 250.722656 C 73.035156 247.988281 55.382812 231.246094 51.273438 209.722656 C 47.164062 231.246094 29.511719 247.988281 7.535156 250.722656 C 5.910156 250.925781 4.261719 251.050781 2.589844 251.097656 C 2.496094 251.101562 2.398438 251.101562 2.300781 251.105469 C 1.929688 251.113281 1.554688 251.117188 1.179688 251.117188 C 1.011719 251.117188 0.84375 251.117188 0.675781 251.113281 C 0.660156 250.855469 0.644531 250.59375 0.632812 250.332031 C 0.617188 249.957031 0.605469 249.578125 0.597656 249.199219 C 0.585938 248.8125 0.582031 248.425781 0.582031 248.039062 C 0.582031 244.753906 0.894531 241.542969 1.488281 238.433594 C 5.519531 217.324219 22.574219 200.816406 43.957031 197.605469 C 23.199219 194.535156 6.5 178.933594 1.804688 158.75 C 1.382812 156.953125 1.0625 155.117188 0.839844 153.253906 C 0.75 152.519531 0.679688 151.78125 0.625 151.039062 Z M 48.992188 195.105469 C 47.050781 170.425781 29.179688 153.210938 4.222656 152.308594 C 4.078125 152.304688 3.933594 152.300781 3.789062 152.296875 C 3.84375 153.035156 3.917969 153.765625 4.011719 154.496094 C 6.960938 178.273438 24.582031 194.4375 48.992188 195.105469 Z M 98.917969 152.445312 C 73.570312 152.929688 55.757812 169.902344 53.800781 194.867188 C 79.148438 194.382812 96.960938 177.410156 98.917969 152.445312 Z M 150.015625 104.453125 C 124.746094 104.898438 106.46875 122.121094 104.351562 146.953125 C 129.621094 146.507812 147.902344 129.285156 150.015625 104.453125 Z M 104.65625 51.78125 C 104.648438 52.167969 104.644531 52.554688 104.644531 52.941406 C 104.644531 79.792969 123.4375 98.777344 150.199219 99.160156 C 150.207031 98.777344 150.210938 98.390625 150.210938 98.003906 C 150.210938 71.152344 131.417969 52.164062 104.65625 51.78125 Z M 54.246094 99.148438 C 80.722656 98.441406 99.460938 79.335938 99.460938 52.691406 C 99.460938 52.308594 99.457031 51.925781 99.445312 51.546875 C 72.972656 52.253906 54.234375 71.359375 54.234375 98.003906 C 54.234375 98.386719 54.238281 98.769531 54.246094 99.148438 Z M 54.808594 3.75 C 54.867188 4.488281 54.941406 5.222656 55.03125 5.953125 C 57.980469 29.730469 74.609375 44.972656 99.019531 45.640625 C 97.078125 20.960938 80.203125 4.667969 55.246094 3.765625 C 55.097656 3.757812 54.953125 3.753906 54.808594 3.75 Z M 148.570312 4.53125 C 123.222656 5.015625 105.910156 21.535156 103.953125 46.496094 C 129.300781 46.011719 146.613281 29.496094 148.570312 4.53125 Z M 199.390625 51.792969 C 172.917969 52.5 155.027344 70.734375 155.027344 97.382812 C 155.027344 97.765625 155.03125 98.148438 155.039062 98.527344 C 181.515625 97.820312 199.40625 79.585938 199.40625 52.941406 C 199.40625 52.558594 199.402344 52.175781 199.390625 51.792969 Z M 200.917969 148.183594 C 198.8125 123.558594 180.234375 105.839844 155.253906 105.089844 C 157.359375 129.710938 175.933594 147.429688 200.917969 148.183594 Z M 99.425781 247.953125 C 99.4375 247.570312 99.441406 247.183594 99.441406 246.796875 C 99.441406 219.945312 80.035156 200.335938 53.273438 199.953125 C 53.265625 200.339844 53.261719 200.726562 53.261719 201.113281 C 53.261719 227.964844 72.664062 247.574219 99.425781 247.953125 Z M 149.195312 200.214844 C 122.71875 200.921875 104.253906 219.777344 104.253906 246.421875 C 104.253906 246.804688 104.261719 247.1875 104.269531 247.570312 C 130.746094 246.863281 149.207031 228.007812 149.207031 201.359375 C 149.207031 200.976562 149.203125 200.597656 149.195312 200.214844 Z M 198.136719 242.207031 C 196.195312 217.527344 179.320312 201.308594 154.363281 200.40625 C 154.214844 200.398438 154.070312 200.394531 153.925781 200.390625 C 153.984375 201.128906 154.058594 201.863281 154.148438 202.59375 C 157.097656 226.371094 173.726562 241.539062 198.136719 242.207031 Z M 249.179688 200.183594 C 223.832031 200.667969 206.519531 217.128906 204.558594 242.09375 C 229.90625 241.609375 247.222656 225.148438 249.179688 200.183594 Z M 249.929688 296.421875 C 249.941406 296.039062 249.945312 295.652344 249.945312 295.265625 C 249.945312 268.414062 230.539062 248.804688 203.777344 248.421875 C 203.769531 248.808594 203.765625 249.195312 203.765625 249.582031 C 203.765625 276.433594 223.167969 296.042969 249.929688 296.421875 Z M 299.332031 248.0625 C 272.855469 248.769531 253.667969 268.371094 253.667969 295.015625 C 253.667969 295.398438 253.671875 295.78125 253.679688 296.164062 C 280.15625 295.457031 299.34375 275.851562 299.34375 249.207031 C 299.34375 248.824219 299.339844 248.441406 299.332031 248.0625 Z M 298.792969 343.664062 C 296.6875 319.039062 278.730469 301.859375 253.75 301.109375 C 255.855469 325.730469 273.808594 342.910156 298.792969 343.664062 Z M 204.960938 342.765625 C 230.230469 342.320312 247.640625 325.753906 249.753906 300.921875 C 224.484375 301.367188 207.074219 317.933594 204.960938 342.765625 Z M 153.734375 295.914062 C 180.207031 295.207031 198.910156 276.101562 198.910156 249.457031 C 198.910156 249.074219 198.90625 248.691406 198.898438 248.308594 C 172.421875 249.015625 153.71875 268.121094 153.71875 294.765625 C 153.71875 295.152344 153.722656 295.53125 153.734375 295.914062 Z M 104.480469 253.882812 C 106.585938 278.507812 123.671875 294.820312 148.65625 295.570312 C 146.550781 270.949219 129.464844 254.632812 104.480469 253.882812 Z M 53.828125 295.746094 C 79.097656 295.304688 96.753906 278.59375 98.871094 253.761719 C 73.601562 254.207031 55.945312 270.914062 53.828125 295.746094 Z M 3.234375 248.4375 C 29.710938 247.730469 49.144531 227.882812 49.144531 201.238281 C 49.144531 200.855469 49.140625 200.472656 49.132812 200.089844 C 22.65625 200.796875 3.222656 220.648438 3.222656 247.292969 C 3.222656 247.675781 3.226562 248.058594 3.234375 248.4375 Z M 151.894531 207.054688 C 151.773438 207.953125 151.628906 208.84375 151.460938 209.722656 C 147.351562 231.246094 129.695312 247.988281 107.722656 250.722656 C 128.960938 253.367188 146.160156 269.09375 151 289.574219 C 151.136719 288.507812 151.304688 287.449219 151.503906 286.40625 C 155.53125 265.296875 172.589844 248.789062 193.972656 245.578125 C 173.328125 242.523438 156.699219 227.078125 151.894531 207.054688 Z M 151.894531 207.054688 " fill-opacity="1" fill-rule="evenodd"/></g></g></g></g><g mask="url(#68351397ed)"><g transform="matrix(1, 0, 0, 1, 0, 0.000000000000039746)"><g clip-path="url(#28850f6876)"><g clip-path="url(#6a5340601b)"><g transform="matrix(1, 0, 0, 1, 0, 0.000000000000039746)"><g clip-path="url(#7804430096)"><g clip-path="url(#6fe3d2daba)"><path fill="#1a2247" d="M -24.710938 146.214844 C -24.757812 146.855469 -24.792969 147.5 -24.820312 148.148438 C -24.597656 148.152344 -24.375 148.152344 -24.152344 148.152344 L -24.148438 148.152344 C -23.726562 148.152344 -23.304688 148.148438 -22.882812 148.136719 C -22.660156 148.132812 -22.4375 148.125 -22.21875 148.117188 C 2.03125 147.222656 22.015625 129.53125 26.445312 106.347656 C 30.933594 129.875 51.449219 147.742188 76.183594 148.144531 C 76.242188 148.148438 76.304688 148.148438 76.363281 148.148438 C 76.503906 148.148438 76.644531 148.152344 76.785156 148.152344 C 76.804688 148.464844 76.828125 148.777344 76.855469 149.085938 C 77.003906 150.929688 77.253906 152.746094 77.59375 154.527344 C 81.746094 176.265625 99.574219 193.171875 121.765625 195.9375 C 99.574219 198.699219 81.746094 215.609375 77.59375 237.34375 C 73.445312 215.609375 55.617188 198.699219 33.421875 195.9375 C 31.78125 195.730469 30.117188 195.605469 28.429688 195.558594 C 28.332031 195.554688 28.234375 195.554688 28.136719 195.550781 C 27.761719 195.542969 27.382812 195.539062 27.003906 195.539062 C 26.832031 195.539062 26.664062 195.539062 26.492188 195.542969 C 26.476562 195.804688 26.464844 196.066406 26.453125 196.332031 C 26.4375 196.710938 26.421875 197.09375 26.414062 197.476562 C 26.40625 197.867188 26.402344 198.257812 26.402344 198.648438 C 26.402344 201.964844 26.714844 205.207031 27.316406 208.351562 C 31.386719 229.667969 48.609375 246.339844 70.207031 249.582031 C 49.242188 252.683594 32.378906 268.4375 27.632812 288.824219 C 27.210938 290.640625 26.882812 292.492188 26.660156 294.375 C 26.570312 295.117188 26.5 295.863281 26.441406 296.613281 C 26.394531 297.253906 26.355469 297.898438 26.332031 298.546875 C 26.554688 298.546875 26.777344 298.550781 27 298.550781 L 27.003906 298.550781 C 27.425781 298.550781 27.847656 298.542969 28.269531 298.535156 C 28.492188 298.527344 28.710938 298.523438 28.933594 298.515625 C 53.179688 297.621094 73.167969 279.929688 77.59375 256.746094 C 82.085938 280.269531 102.601562 298.140625 127.332031 298.542969 C 127.394531 298.542969 127.453125 298.542969 127.515625 298.546875 C 127.738281 298.546875 127.960938 298.550781 128.1875 298.550781 C 128.546875 298.550781 128.90625 298.546875 129.269531 298.539062 C 129.328125 298.539062 129.390625 298.535156 129.449219 298.535156 C 129.476562 297.886719 129.515625 297.238281 129.566406 296.597656 C 129.429688 296.601562 129.292969 296.605469 129.160156 296.605469 C 129.011719 294.648438 128.753906 292.71875 128.390625 290.828125 C 124.320312 269.511719 107.097656 252.839844 85.5 249.597656 C 107.144531 246.394531 124.421875 229.699219 128.5 208.351562 C 132.566406 229.667969 149.792969 246.339844 171.390625 249.582031 C 173.445312 249.890625 175.539062 250.078125 177.664062 250.132812 C 177.761719 250.136719 177.859375 250.140625 177.957031 250.140625 C 178.332031 250.148438 178.710938 250.152344 179.089844 250.152344 C 179.257812 250.152344 179.429688 250.152344 179.597656 250.152344 C 179.621094 249.777344 179.640625 249.402344 179.652344 249.027344 C 179.664062 248.757812 179.671875 248.488281 179.679688 248.21875 C 179.6875 247.828125 179.691406 247.4375 179.691406 247.042969 C 179.691406 243.730469 179.378906 240.484375 178.777344 237.34375 C 174.628906 215.609375 156.796875 198.699219 134.605469 195.9375 C 156.796875 193.171875 174.628906 176.265625 178.777344 154.527344 C 179.117188 152.742188 179.367188 150.925781 179.519531 149.078125 C 179.550781 148.699219 179.574219 148.316406 179.597656 147.933594 C 179.613281 147.671875 179.628906 147.410156 179.640625 147.144531 C 179.457031 147.144531 179.273438 147.144531 179.089844 147.144531 C 178.695312 147.144531 178.304688 147.148438 177.914062 147.15625 C 177.84375 147.160156 177.773438 147.160156 177.703125 147.160156 C 176.003906 147.207031 174.324219 147.335938 172.671875 147.539062 C 150.476562 150.304688 132.648438 167.210938 128.5 188.949219 C 124.347656 167.210938 106.519531 150.304688 84.324219 147.539062 C 82.46875 147.308594 80.582031 147.175781 78.667969 147.148438 C 78.597656 147.148438 78.527344 147.148438 78.457031 147.144531 C 78.421875 147.144531 78.386719 147.144531 78.347656 147.144531 C 78.367188 146.828125 78.390625 146.515625 78.414062 146.199219 C 78.277344 146.203125 78.144531 146.207031 78.007812 146.210938 C 77.859375 144.25 77.601562 142.324219 77.242188 140.429688 C 73.171875 119.113281 55.945312 102.441406 34.347656 99.199219 C 55.996094 95.996094 73.269531 79.304688 77.347656 57.953125 C 81.417969 79.269531 98.640625 95.941406 120.238281 99.183594 C 122.292969 99.492188 124.386719 99.679688 126.511719 99.738281 C 126.609375 99.738281 126.707031 99.742188 126.804688 99.746094 C 127.179688 99.753906 127.558594 99.757812 127.9375 99.757812 C 128.109375 99.757812 128.277344 99.753906 128.449219 99.753906 C 128.449219 99.734375 128.449219 99.714844 128.449219 99.691406 C 128.507812 99.691406 128.566406 99.691406 128.621094 99.6875 C 128.84375 99.683594 129.066406 99.675781 129.285156 99.667969 C 153.535156 98.773438 173.523438 81.082031 177.949219 57.898438 C 182.441406 81.425781 202.957031 99.292969 227.6875 99.695312 C 227.746094 99.699219 227.808594 99.699219 227.867188 99.699219 C 228.09375 99.703125 228.316406 99.703125 228.539062 99.703125 C 228.902344 99.703125 229.261719 99.699219 229.621094 99.691406 C 229.683594 99.691406 229.742188 99.691406 229.804688 99.6875 C 229.828125 99.039062 229.867188 98.394531 229.917969 97.75 C 229.78125 97.753906 229.648438 97.757812 229.511719 97.761719 C 229.363281 95.800781 229.105469 93.875 228.746094 91.984375 C 224.675781 70.667969 207.449219 53.992188 185.851562 50.75 C 207.5 47.546875 224.773438 30.855469 228.851562 9.503906 C 232.921875 30.820312 250.148438 47.492188 271.742188 50.734375 C 273.796875 51.042969 275.890625 51.230469 278.015625 51.289062 C 278.113281 51.292969 278.210938 51.292969 278.308594 51.296875 C 278.6875 51.304688 279.0625 51.308594 279.441406 51.308594 C 279.613281 51.308594 279.78125 51.308594 279.953125 51.304688 C 279.972656 50.933594 279.992188 50.558594 280.007812 50.183594 C 280.015625 49.914062 280.027344 49.640625 280.03125 49.371094 C 280.039062 48.980469 280.042969 48.589844 280.042969 48.199219 C 280.042969 44.882812 279.730469 41.640625 279.128906 38.496094 C 274.980469 16.761719 257.152344 -0.144531 234.957031 -2.910156 C 257.152344 -5.671875 274.980469 -22.582031 279.128906 -44.316406 C 279.472656 -46.101562 279.71875 -47.921875 279.871094 -49.765625 C 279.902344 -50.148438 279.929688 -50.527344 279.953125 -50.910156 C 279.96875 -51.171875 279.980469 -51.4375 279.992188 -51.699219 C 279.808594 -51.703125 279.625 -51.703125 279.441406 -51.703125 C 279.050781 -51.703125 278.660156 -51.699219 278.269531 -51.6875 C 278.199219 -51.6875 278.128906 -51.6875 278.058594 -51.683594 C 276.359375 -51.640625 274.679688 -51.511719 273.023438 -51.304688 C 250.832031 -48.542969 233 -31.632812 228.851562 -9.898438 C 224.703125 -31.632812 206.871094 -48.542969 184.679688 -51.304688 C 182.820312 -51.535156 180.933594 -51.667969 179.019531 -51.695312 C 178.949219 -51.699219 178.882812 -51.699219 178.8125 -51.699219 C 178.628906 -51.703125 178.445312 -51.703125 178.261719 -51.703125 C 177.867188 -51.703125 177.476562 -51.699219 177.085938 -51.6875 C 177.097656 -51.433594 177.109375 -51.175781 177.125 -50.921875 C 177.148438 -50.53125 177.175781 -50.144531 177.207031 -49.757812 C 177.359375 -47.914062 177.609375 -46.101562 177.949219 -44.316406 C 182.097656 -22.582031 199.925781 -5.671875 222.121094 -2.910156 C 199.925781 -0.144531 182.097656 16.761719 177.949219 38.496094 C 173.796875 16.761719 155.96875 -0.144531 133.777344 -2.910156 C 132.132812 -3.113281 130.46875 -3.242188 128.785156 -3.285156 C 128.6875 -3.289062 128.589844 -3.292969 128.492188 -3.292969 C 128.113281 -3.300781 127.734375 -3.304688 127.355469 -3.304688 C 127.1875 -3.304688 127.015625 -3.304688 126.847656 -3.304688 C 126.847656 -3.285156 126.84375 -3.261719 126.84375 -3.242188 C 126.816406 -3.242188 126.789062 -3.242188 126.765625 -3.242188 C 126.691406 -3.238281 126.621094 -3.238281 126.550781 -3.234375 C 124.851562 -3.191406 123.175781 -3.0625 121.519531 -2.855469 C 99.324219 -0.09375 81.496094 16.8125 77.347656 38.550781 C 73.195312 16.8125 55.367188 -0.09375 33.175781 -2.855469 C 31.316406 -3.089844 29.429688 -3.21875 27.515625 -3.25 C 27.445312 -3.25 27.375 -3.25 27.304688 -3.25 C 27.121094 -3.253906 26.9375 -3.253906 26.753906 -3.253906 C 26.363281 -3.253906 25.972656 -3.25 25.582031 -3.242188 C 25.59375 -2.984375 25.605469 -2.726562 25.621094 -2.472656 C 25.644531 -2.082031 25.671875 -1.695312 25.703125 -1.308594 C 25.855469 0.535156 26.101562 2.347656 26.441406 4.132812 C 30.59375 25.867188 48.421875 42.773438 70.617188 45.539062 C 48.421875 48.304688 30.59375 65.210938 26.441406 86.945312 C 22.292969 65.210938 4.464844 48.304688 -17.730469 45.539062 C -19.371094 45.335938 -21.035156 45.207031 -22.722656 45.160156 C -22.820312 45.160156 -22.917969 45.15625 -23.011719 45.15625 C -23.390625 45.144531 -23.769531 45.140625 -24.148438 45.140625 C -24.316406 45.140625 -24.488281 45.144531 -24.65625 45.144531 C -24.671875 45.40625 -24.6875 45.667969 -24.699219 45.933594 C -24.714844 46.3125 -24.726562 46.695312 -24.738281 47.078125 C -24.746094 47.46875 -24.75 47.859375 -24.75 48.25 C -24.75 51.566406 -24.4375 54.808594 -23.835938 57.953125 C -19.765625 79.269531 -2.539062 95.941406 19.054688 99.183594 C -1.90625 102.285156 -18.773438 118.042969 -23.519531 138.425781 C -23.941406 140.242188 -24.265625 142.09375 -24.492188 143.976562 C -24.578125 144.71875 -24.652344 145.464844 -24.710938 146.214844 Z M 24.140625 101.707031 C 22.179688 126.636719 4.132812 144.019531 -21.074219 144.929688 C -21.21875 144.9375 -21.367188 144.941406 -21.515625 144.945312 C -21.457031 144.199219 -21.378906 143.457031 -21.289062 142.722656 C -18.308594 118.710938 -0.511719 102.382812 24.140625 101.707031 Z M 74.5625 144.792969 C 48.960938 144.304688 30.972656 127.164062 28.996094 101.949219 C 54.597656 102.441406 72.585938 119.582031 74.5625 144.792969 Z M 126.167969 193.261719 C 100.644531 192.8125 82.1875 175.417969 80.050781 150.339844 C 105.574219 150.789062 124.03125 168.183594 126.167969 193.261719 Z M 80.359375 246.457031 C 80.351562 246.070312 80.347656 245.679688 80.347656 245.289062 C 80.347656 218.167969 99.324219 198.992188 126.351562 198.609375 C 126.359375 198.996094 126.367188 199.386719 126.367188 199.777344 C 126.367188 226.898438 107.386719 246.070312 80.359375 246.457031 Z M 29.449219 198.621094 C 56.1875 199.332031 75.109375 218.628906 75.109375 245.539062 C 75.109375 245.925781 75.105469 246.3125 75.097656 246.695312 C 48.359375 245.984375 29.433594 226.6875 29.433594 199.777344 C 29.433594 199.390625 29.4375 199.003906 29.449219 198.621094 Z M 30.015625 294.964844 C 30.074219 294.222656 30.148438 293.480469 30.238281 292.742188 C 33.21875 268.730469 50.011719 253.335938 74.664062 252.660156 C 72.703125 277.585938 55.660156 294.039062 30.453125 294.953125 C 30.308594 294.957031 30.160156 294.960938 30.015625 294.964844 Z M 124.710938 294.179688 C 99.109375 293.6875 81.625 277.007812 79.644531 251.792969 C 105.246094 252.285156 122.730469 268.96875 124.710938 294.179688 Z M 176.035156 246.445312 C 149.296875 245.730469 131.226562 227.316406 131.226562 200.40625 C 131.226562 200.019531 131.230469 199.632812 131.242188 199.246094 C 157.980469 199.960938 176.046875 218.378906 176.046875 245.289062 C 176.046875 245.675781 176.042969 246.0625 176.035156 246.445312 Z M 177.574219 149.097656 C 175.449219 173.96875 156.6875 191.863281 131.457031 192.621094 C 133.582031 167.753906 152.34375 149.859375 177.574219 149.097656 Z M 75.078125 48.335938 C 75.085938 48.726562 75.089844 49.113281 75.089844 49.507812 C 75.089844 76.625 55.492188 96.429688 28.464844 96.8125 C 28.457031 96.425781 28.453125 96.035156 28.453125 95.644531 C 28.453125 68.523438 48.050781 48.722656 75.078125 48.335938 Z M 125.339844 96.550781 C 98.597656 95.835938 79.953125 76.792969 79.953125 49.882812 C 79.953125 49.496094 79.957031 49.109375 79.964844 48.726562 C 106.703125 49.4375 125.351562 68.484375 125.351562 95.390625 C 125.351562 95.78125 125.347656 96.164062 125.339844 96.550781 Z M 174.765625 54.140625 C 172.808594 79.066406 155.761719 95.445312 130.558594 96.355469 C 130.410156 96.363281 130.261719 96.367188 130.117188 96.371094 C 130.175781 95.625 130.25 94.886719 130.339844 94.148438 C 133.320312 70.136719 150.113281 54.8125 174.765625 54.140625 Z M 226.316406 96.582031 C 200.71875 96.09375 183.230469 79.464844 181.253906 54.253906 C 206.855469 54.746094 224.339844 71.371094 226.316406 96.582031 Z M 227.078125 -0.613281 C 227.085938 -0.226562 227.089844 0.164062 227.089844 0.554688 C 227.089844 27.675781 207.492188 47.476562 180.464844 47.863281 C 180.457031 47.472656 180.453125 47.085938 180.453125 46.691406 C 180.453125 19.574219 200.046875 -0.230469 227.078125 -0.613281 Z M 276.96875 48.226562 C 250.230469 47.511719 230.847656 27.714844 230.847656 0.808594 C 230.847656 0.417969 230.851562 0.0351562 230.863281 -0.351562 C 257.601562 0.363281 276.980469 20.160156 276.980469 47.070312 C 276.980469 47.457031 276.976562 47.84375 276.96875 48.226562 Z M 276.421875 -48.324219 C 274.296875 -23.457031 256.164062 -6.105469 230.929688 -5.347656 C 233.058594 -30.214844 251.191406 -47.566406 276.421875 -48.324219 Z M 181.660156 -47.417969 C 207.179688 -46.96875 224.761719 -30.238281 226.898438 -5.15625 C 201.375 -5.605469 183.796875 -22.335938 181.660156 -47.417969 Z M 129.921875 -0.101562 C 156.660156 0.613281 175.546875 19.910156 175.546875 46.820312 C 175.546875 47.207031 175.542969 47.589844 175.535156 47.976562 C 148.796875 47.261719 129.910156 27.96875 129.910156 1.058594 C 129.910156 0.671875 129.914062 0.285156 129.921875 -0.101562 Z M 80.179688 42.347656 C 82.304688 17.480469 99.5625 1.003906 124.792969 0.246094 C 122.667969 25.113281 105.410156 41.589844 80.179688 42.347656 Z M 29.023438 0.0664062 C 54.546875 0.515625 72.378906 17.390625 74.515625 42.46875 C 48.992188 42.019531 31.160156 25.148438 29.023438 0.0664062 Z M -22.070312 47.847656 C 4.667969 48.558594 24.292969 68.609375 24.292969 95.519531 C 24.292969 95.90625 24.289062 96.289062 24.28125 96.675781 C -2.457031 95.960938 -22.082031 75.914062 -22.082031 49.003906 C -22.082031 48.617188 -22.078125 48.230469 -22.070312 47.847656 Z M 128.066406 89.640625 C 127.941406 88.734375 127.796875 87.835938 127.625 86.945312 C 123.476562 65.210938 105.648438 48.304688 83.453125 45.539062 C 104.902344 42.867188 122.273438 26.988281 127.164062 6.304688 C 127.296875 7.382812 127.46875 8.449219 127.667969 9.503906 C 131.738281 30.820312 148.964844 47.492188 170.5625 50.734375 C 149.710938 53.820312 132.917969 69.417969 128.066406 89.640625 Z M 128.066406 89.640625 " fill-opacity="1" fill-rule="evenodd"/></g></g></g></g></g></g></g><g mask="url(#c9c7e8f0e6)"><g transform="matrix(1, 0, 0, 1, 0, 504)"><g clip-path="url(#e56165e47b)"><g clip-path="url(#52544c93a5)"><path fill="#bea04e" d="M -24.710938 151.039062 C -24.757812 150.402344 -24.792969 149.765625 -24.820312 149.125 C -24.597656 149.121094 -24.378906 149.121094 -24.15625 149.121094 C -23.734375 149.121094 -23.320312 149.125 -22.902344 149.136719 C -22.683594 149.140625 -22.460938 149.148438 -22.242188 149.15625 C 1.765625 150.042969 21.554688 167.558594 25.9375 190.511719 C 30.386719 167.21875 50.699219 149.523438 75.1875 149.125 C 75.25 149.125 75.308594 149.125 75.367188 149.125 C 75.507812 149.121094 75.648438 149.121094 75.785156 149.121094 C 75.804688 148.8125 75.828125 148.503906 75.855469 148.195312 C 76.003906 146.371094 76.25 144.570312 76.585938 142.804688 C 80.695312 121.285156 98.347656 104.542969 120.324219 101.804688 C 98.347656 99.070312 80.695312 82.328125 76.585938 60.804688 C 72.476562 82.328125 54.824219 99.070312 32.847656 101.804688 C 31.222656 102.007812 29.574219 102.132812 27.90625 102.179688 C 27.808594 102.183594 27.714844 102.183594 27.617188 102.1875 C 27.242188 102.195312 26.867188 102.199219 26.492188 102.199219 C 26.324219 102.199219 26.15625 102.199219 25.988281 102.195312 C 25.972656 101.9375 25.960938 101.675781 25.949219 101.417969 C 25.933594 101.039062 25.917969 100.660156 25.910156 100.28125 C 25.902344 99.894531 25.898438 99.507812 25.898438 99.121094 C 25.898438 95.835938 26.207031 92.625 26.800781 89.515625 C 30.832031 68.410156 47.886719 51.898438 69.273438 48.6875 C 48.515625 45.617188 31.816406 30.019531 27.117188 9.832031 C 26.699219 8.035156 26.375 6.203125 26.152344 4.335938 C 26.066406 3.601562 25.992188 2.863281 25.9375 2.121094 C 25.890625 1.484375 25.855469 0.847656 25.828125 0.207031 C 26.050781 0.203125 26.269531 0.203125 26.488281 0.203125 L 26.492188 0.203125 C 26.910156 0.203125 27.328125 0.207031 27.746094 0.21875 C 27.964844 0.222656 28.183594 0.230469 28.40625 0.238281 C 52.414062 1.125 72.203125 18.640625 76.585938 41.59375 C 81.035156 18.300781 101.347656 0.609375 125.835938 0.210938 C 125.894531 0.207031 125.957031 0.207031 126.015625 0.207031 C 126.238281 0.203125 126.457031 0.203125 126.679688 0.203125 C 127.039062 0.203125 127.394531 0.207031 127.75 0.214844 C 127.8125 0.214844 127.871094 0.214844 127.933594 0.21875 C 127.957031 0.859375 127.996094 1.5 128.046875 2.136719 C 127.910156 2.132812 127.777344 2.128906 127.644531 2.125 C 127.496094 4.066406 127.242188 5.976562 126.882812 7.847656 C 122.855469 28.953125 105.796875 45.464844 84.414062 48.671875 C 105.847656 51.847656 122.953125 68.375 126.988281 89.515625 C 131.019531 68.410156 148.074219 51.898438 169.460938 48.6875 C 171.492188 48.382812 173.566406 48.199219 175.671875 48.140625 C 175.765625 48.140625 175.863281 48.136719 175.960938 48.132812 C 176.332031 48.125 176.707031 48.121094 177.082031 48.121094 C 177.25 48.121094 177.417969 48.125 177.585938 48.125 C 177.609375 48.496094 177.628906 48.863281 177.640625 49.238281 C 177.652344 49.503906 177.660156 49.773438 177.664062 50.039062 C 177.675781 50.425781 177.679688 50.8125 177.679688 51.199219 C 177.679688 54.484375 177.367188 57.695312 176.773438 60.804688 C 172.664062 82.328125 155.011719 99.070312 133.035156 101.804688 C 155.011719 104.542969 172.664062 121.285156 176.773438 142.804688 C 177.113281 144.574219 177.359375 146.375 177.507812 148.203125 C 177.539062 148.578125 177.566406 148.957031 177.585938 149.335938 C 177.601562 149.59375 177.617188 149.855469 177.628906 150.117188 C 177.445312 150.117188 177.265625 150.121094 177.082031 150.121094 C 176.695312 150.121094 176.308594 150.113281 175.921875 150.105469 C 175.851562 150.105469 175.78125 150.101562 175.710938 150.101562 C 174.027344 150.054688 172.367188 149.929688 170.726562 149.726562 C 148.753906 146.988281 131.097656 130.25 126.988281 108.726562 C 122.878906 130.25 105.226562 146.988281 83.25 149.726562 C 81.414062 149.957031 79.542969 150.085938 77.648438 150.113281 C 77.578125 150.113281 77.511719 150.117188 77.441406 150.117188 C 77.40625 150.117188 77.371094 150.117188 77.332031 150.117188 C 77.351562 150.429688 77.375 150.742188 77.398438 151.054688 C 77.265625 151.050781 77.128906 151.046875 76.996094 151.042969 C 76.847656 152.984375 76.59375 154.890625 76.234375 156.765625 C 72.207031 177.871094 55.148438 194.378906 33.765625 197.589844 C 55.199219 200.761719 72.304688 217.292969 76.339844 238.433594 C 80.371094 217.324219 97.425781 200.816406 118.8125 197.605469 C 120.84375 197.300781 122.917969 197.117188 125.023438 197.058594 C 125.117188 197.054688 125.214844 197.054688 125.3125 197.050781 C 125.683594 197.042969 126.058594 197.039062 126.433594 197.039062 C 126.601562 197.039062 126.769531 197.039062 126.9375 197.042969 C 126.941406 197.0625 126.941406 197.082031 126.941406 197.101562 C 127 197.105469 127.054688 197.105469 127.113281 197.105469 C 127.332031 197.113281 127.550781 197.117188 127.769531 197.128906 C 151.777344 198.011719 171.570312 215.53125 175.953125 238.484375 C 180.398438 215.191406 200.714844 197.496094 225.203125 197.097656 C 225.261719 197.097656 225.320312 197.097656 225.382812 197.097656 C 225.601562 197.09375 225.824219 197.089844 226.046875 197.089844 C 226.402344 197.089844 226.761719 197.09375 227.117188 197.101562 C 227.179688 197.105469 227.238281 197.105469 227.296875 197.105469 C 227.324219 197.75 227.363281 198.390625 227.410156 199.023438 C 227.277344 199.019531 227.144531 199.019531 227.007812 199.015625 C 226.863281 200.953125 226.609375 202.863281 226.25 204.738281 C 222.21875 225.84375 205.164062 242.351562 183.78125 245.5625 C 205.214844 248.734375 222.320312 265.261719 226.355469 286.40625 C 230.386719 265.296875 247.441406 248.789062 268.824219 245.578125 C 270.859375 245.273438 272.933594 245.089844 275.035156 245.03125 C 275.132812 245.027344 275.230469 245.027344 275.324219 245.023438 C 275.699219 245.015625 276.074219 245.011719 276.449219 245.011719 C 276.617188 245.011719 276.785156 245.011719 276.953125 245.015625 C 276.976562 245.382812 276.992188 245.753906 277.007812 246.125 C 277.019531 246.394531 277.027344 246.660156 277.03125 246.929688 C 277.039062 247.316406 277.042969 247.703125 277.042969 248.089844 C 277.042969 251.375 276.734375 254.585938 276.140625 257.695312 C 272.03125 279.21875 254.378906 295.957031 232.402344 298.695312 C 254.378906 301.433594 272.03125 318.171875 276.140625 339.695312 C 276.476562 341.464844 276.722656 343.265625 276.875 345.09375 C 276.902344 345.46875 276.929688 345.847656 276.953125 346.226562 C 276.96875 346.484375 276.980469 346.746094 276.992188 347.003906 C 276.8125 347.007812 276.628906 347.007812 276.449219 347.007812 C 276.058594 347.007812 275.671875 347.003906 275.285156 346.996094 C 275.214844 346.992188 275.144531 346.992188 275.078125 346.988281 C 273.394531 346.945312 271.730469 346.820312 270.09375 346.617188 C 248.117188 343.878906 230.464844 327.136719 226.355469 305.617188 C 222.246094 327.136719 204.59375 343.878906 182.617188 346.617188 C 180.777344 346.84375 178.910156 346.976562 177.015625 347.003906 C 176.945312 347.003906 176.875 347.003906 176.808594 347.003906 C 176.625 347.007812 176.445312 347.007812 176.261719 347.007812 C 175.875 347.007812 175.484375 347.003906 175.097656 346.996094 C 175.109375 346.742188 175.125 346.488281 175.140625 346.234375 C 175.160156 345.847656 175.1875 345.464844 175.21875 345.082031 C 175.371094 343.257812 175.617188 341.460938 175.953125 339.695312 C 180.0625 318.171875 197.714844 301.433594 219.691406 298.695312 C 197.714844 295.957031 180.0625 279.21875 175.953125 257.695312 C 171.84375 279.21875 154.191406 295.957031 132.214844 298.695312 C 130.589844 298.898438 128.941406 299.023438 127.273438 299.070312 C 127.175781 299.070312 127.078125 299.074219 126.984375 299.078125 C 126.609375 299.085938 126.234375 299.089844 125.859375 299.089844 C 125.691406 299.089844 125.523438 299.085938 125.355469 299.085938 C 125.355469 299.066406 125.351562 299.046875 125.351562 299.023438 C 125.324219 299.023438 125.296875 299.023438 125.273438 299.023438 C 125.203125 299.023438 125.132812 299.019531 125.0625 299.019531 C 123.378906 298.972656 121.71875 298.847656 120.078125 298.644531 C 98.105469 295.90625 80.449219 279.164062 76.339844 257.644531 C 72.234375 279.164062 54.578125 295.90625 32.605469 298.644531 C 30.765625 298.871094 28.894531 299.003906 27 299.03125 C 26.933594 299.03125 26.863281 299.03125 26.792969 299.035156 C 26.613281 299.035156 26.429688 299.035156 26.246094 299.035156 C 25.859375 299.035156 25.472656 299.03125 25.085938 299.023438 C 25.097656 298.769531 25.109375 298.515625 25.125 298.261719 C 25.148438 297.878906 25.175781 297.492188 25.207031 297.109375 C 25.355469 295.285156 25.601562 293.488281 25.9375 291.722656 C 30.046875 270.203125 47.703125 253.460938 69.675781 250.722656 C 47.703125 247.988281 30.046875 231.246094 25.9375 209.722656 C 21.828125 231.246094 4.175781 247.988281 -17.800781 250.722656 C -19.425781 250.925781 -21.074219 251.050781 -22.742188 251.097656 C -22.839844 251.101562 -22.933594 251.101562 -23.03125 251.105469 C -23.40625 251.113281 -23.777344 251.117188 -24.15625 251.117188 C -24.324219 251.117188 -24.492188 251.117188 -24.660156 251.113281 C -24.675781 250.855469 -24.6875 250.59375 -24.699219 250.332031 C -24.714844 249.957031 -24.730469 249.578125 -24.738281 249.199219 C -24.746094 248.8125 -24.75 248.425781 -24.75 248.039062 C -24.75 244.753906 -24.4375 241.542969 -23.84375 238.433594 C -19.816406 217.324219 -2.757812 200.816406 18.625 197.605469 C -2.132812 194.535156 -18.832031 178.933594 -23.53125 158.75 C -23.949219 156.953125 -24.273438 155.117188 -24.496094 153.253906 C -24.582031 152.519531 -24.652344 151.78125 -24.710938 151.039062 Z M 23.660156 195.105469 C 21.71875 170.425781 3.847656 153.210938 -21.109375 152.308594 C -21.253906 152.304688 -21.402344 152.300781 -21.546875 152.296875 C -21.488281 153.035156 -21.414062 153.765625 -21.324219 154.496094 C -18.375 178.273438 -0.75 194.4375 23.660156 195.105469 Z M 73.582031 152.445312 C 48.234375 152.929688 30.425781 169.902344 28.46875 194.867188 C 53.816406 194.382812 71.625 177.410156 73.582031 152.445312 Z M 124.683594 104.453125 C 99.410156 104.898438 81.132812 122.121094 79.019531 146.953125 C 104.289062 146.507812 122.566406 129.285156 124.683594 104.453125 Z M 79.324219 51.78125 C 79.316406 52.167969 79.3125 52.554688 79.3125 52.941406 C 79.3125 79.792969 98.101562 98.777344 124.863281 99.160156 C 124.875 98.777344 124.878906 98.390625 124.878906 98.003906 C 124.878906 71.152344 106.085938 52.164062 79.324219 51.78125 Z M 28.914062 99.148438 C 55.390625 98.441406 74.125 79.335938 74.125 52.691406 C 74.125 52.308594 74.121094 51.925781 74.113281 51.546875 C 47.636719 52.253906 28.902344 71.359375 28.902344 98.003906 C 28.902344 98.386719 28.90625 98.769531 28.914062 99.148438 Z M 29.472656 3.75 C 29.53125 4.488281 29.605469 5.222656 29.699219 5.953125 C 32.648438 29.730469 49.273438 44.972656 73.683594 45.640625 C 71.746094 20.960938 54.867188 4.667969 29.910156 3.765625 C 29.765625 3.757812 29.621094 3.753906 29.472656 3.75 Z M 123.238281 4.53125 C 97.890625 5.015625 80.574219 21.535156 78.617188 46.496094 C 103.964844 46.011719 121.28125 29.496094 123.238281 4.53125 Z M 174.058594 51.792969 C 147.582031 52.5 129.691406 70.734375 129.691406 97.382812 C 129.691406 97.765625 129.695312 98.148438 129.707031 98.527344 C 156.179688 97.820312 174.070312 79.585938 174.070312 52.941406 C 174.070312 52.558594 174.066406 52.175781 174.058594 51.792969 Z M 175.585938 148.183594 C 173.480469 123.558594 154.902344 105.839844 129.917969 105.089844 C 132.023438 129.710938 150.601562 147.429688 175.585938 148.183594 Z M 74.09375 247.953125 C 74.101562 247.570312 74.105469 247.183594 74.105469 246.796875 C 74.105469 219.945312 54.703125 200.335938 27.941406 199.953125 C 27.933594 200.339844 27.929688 200.726562 27.929688 201.113281 C 27.929688 227.964844 47.332031 247.574219 74.09375 247.953125 Z M 123.859375 200.214844 C 97.386719 200.921875 78.921875 219.777344 78.921875 246.421875 C 78.921875 246.804688 78.925781 247.1875 78.933594 247.570312 C 105.410156 246.863281 123.875 228.007812 123.875 201.359375 C 123.875 200.976562 123.871094 200.597656 123.859375 200.214844 Z M 172.804688 242.207031 C 170.863281 217.527344 153.984375 201.308594 129.027344 200.40625 C 128.882812 200.398438 128.738281 200.394531 128.59375 200.390625 C 128.648438 201.128906 128.722656 201.863281 128.816406 202.59375 C 131.765625 226.371094 148.394531 241.539062 172.804688 242.207031 Z M 223.847656 200.183594 C 198.5 200.667969 181.183594 217.128906 179.226562 242.09375 C 204.574219 241.609375 221.886719 225.148438 223.847656 200.183594 Z M 224.597656 296.421875 C 224.605469 296.039062 224.609375 295.652344 224.609375 295.265625 C 224.609375 268.414062 205.207031 248.804688 178.445312 248.421875 C 178.4375 248.808594 178.433594 249.195312 178.433594 249.582031 C 178.433594 276.433594 197.835938 296.042969 224.597656 296.421875 Z M 274 248.0625 C 247.523438 248.769531 228.332031 268.371094 228.332031 295.015625 C 228.332031 295.398438 228.335938 295.78125 228.34375 296.164062 C 254.820312 295.457031 274.011719 275.851562 274.011719 249.207031 C 274.011719 248.824219 274.007812 248.441406 274 248.0625 Z M 273.460938 343.664062 C 271.355469 319.039062 253.398438 301.859375 228.414062 301.109375 C 230.519531 325.730469 248.476562 342.910156 273.460938 343.664062 Z M 179.625 342.765625 C 204.898438 342.320312 222.304688 325.753906 224.421875 300.921875 C 199.148438 301.367188 181.742188 317.933594 179.625 342.765625 Z M 128.398438 295.914062 C 154.875 295.207031 173.578125 276.101562 173.578125 249.457031 C 173.578125 249.074219 173.570312 248.691406 173.5625 248.308594 C 147.085938 249.015625 128.386719 268.121094 128.386719 294.765625 C 128.386719 295.152344 128.390625 295.53125 128.398438 295.914062 Z M 79.144531 253.882812 C 81.253906 278.507812 98.335938 294.820312 123.320312 295.570312 C 121.214844 270.949219 104.128906 254.632812 79.144531 253.882812 Z M 28.492188 295.746094 C 53.765625 295.304688 71.421875 278.59375 73.539062 253.761719 C 48.265625 254.207031 30.609375 270.914062 28.492188 295.746094 Z M -22.097656 248.4375 C 4.378906 247.730469 23.8125 227.882812 23.8125 201.238281 C 23.8125 200.855469 23.808594 200.472656 23.796875 200.089844 C -2.675781 200.796875 -22.109375 220.648438 -22.109375 247.292969 C -22.109375 247.675781 -22.105469 248.058594 -22.097656 248.4375 Z M 126.5625 207.054688 C 126.441406 207.953125 126.292969 208.84375 126.125 209.722656 C 122.015625 231.246094 104.363281 247.988281 82.386719 250.722656 C 103.625 253.367188 120.828125 269.09375 125.667969 289.574219 C 125.800781 288.507812 125.96875 287.449219 126.167969 286.40625 C 130.199219 265.296875 147.253906 248.789062 168.640625 245.578125 C 147.996094 242.523438 131.367188 227.078125 126.5625 207.054688 Z M 126.5625 207.054688 " fill-opacity="1" fill-rule="evenodd"/></g></g></g></g><g mask="url(#0010092c2a)"><g transform="matrix(1, 0, 0, 1, 540, 0.000000000000039746)"><g clip-path="url(#bf00aada10)"><g clip-path="url(#a9df98dfcc)"><path fill="#bea04e" d="M 0.441406 -59.4375 C 0.390625 -60.078125 0.355469 -60.722656 0.332031 -61.367188 C 0.554688 -61.371094 0.777344 -61.375 1 -61.375 L 1.003906 -61.375 C 1.425781 -61.375 1.847656 -61.367188 2.265625 -61.359375 C 2.488281 -61.351562 2.710938 -61.347656 2.933594 -61.335938 C 27.179688 -60.441406 47.167969 -42.753906 51.59375 -19.570312 C 56.085938 -43.09375 76.601562 -60.964844 101.332031 -61.367188 C 101.390625 -61.367188 101.453125 -61.367188 101.515625 -61.367188 C 101.65625 -61.371094 101.796875 -61.371094 101.9375 -61.371094 C 101.957031 -61.683594 101.980469 -61.996094 102.003906 -62.308594 C 102.15625 -64.152344 102.402344 -65.964844 102.746094 -67.75 C 106.894531 -89.484375 124.722656 -106.394531 146.917969 -109.15625 C 124.722656 -111.921875 106.894531 -128.828125 102.746094 -150.5625 C 98.59375 -128.828125 80.765625 -111.921875 58.570312 -109.15625 C 56.929688 -108.953125 55.265625 -108.824219 53.578125 -108.78125 C 53.484375 -108.777344 53.386719 -108.773438 53.289062 -108.773438 C 52.910156 -108.765625 52.53125 -108.761719 52.152344 -108.761719 C 51.984375 -108.761719 51.8125 -108.761719 51.644531 -108.761719 C 51.628906 -109.023438 51.613281 -109.289062 51.601562 -109.550781 C 51.585938 -109.933594 51.574219 -110.3125 51.566406 -110.695312 C 51.554688 -111.085938 51.550781 -111.476562 51.550781 -111.871094 C 51.550781 -115.183594 51.867188 -118.429688 52.464844 -121.570312 C 56.535156 -142.886719 73.761719 -159.558594 95.359375 -162.800781 C 74.394531 -165.90625 57.527344 -181.660156 52.785156 -202.042969 C 52.359375 -203.859375 52.035156 -205.710938 51.808594 -207.597656 C 51.722656 -208.335938 51.648438 -209.082031 51.59375 -209.832031 C 51.542969 -210.476562 51.507812 -211.117188 51.484375 -211.765625 C 51.703125 -211.769531 51.925781 -211.769531 52.148438 -211.769531 L 52.152344 -211.769531 C 52.574219 -211.769531 52.996094 -211.765625 53.417969 -211.753906 C 53.640625 -211.75 53.863281 -211.742188 54.082031 -211.734375 C 78.332031 -210.839844 98.320312 -193.148438 102.746094 -169.964844 C 107.234375 -193.492188 127.753906 -211.359375 152.484375 -211.761719 C 152.542969 -211.765625 152.605469 -211.765625 152.664062 -211.765625 C 152.886719 -211.769531 153.113281 -211.769531 153.335938 -211.769531 C 153.699219 -211.769531 154.058594 -211.765625 154.417969 -211.757812 C 154.480469 -211.757812 154.539062 -211.757812 154.601562 -211.753906 C 154.625 -211.105469 154.664062 -210.460938 154.714844 -209.816406 C 154.578125 -209.820312 154.445312 -209.824219 154.308594 -209.828125 C 154.160156 -207.867188 153.902344 -205.941406 153.542969 -204.050781 C 149.472656 -182.734375 132.246094 -166.058594 110.648438 -162.816406 C 132.296875 -159.613281 149.570312 -142.921875 153.648438 -121.570312 C 157.71875 -142.886719 174.945312 -159.558594 196.539062 -162.800781 C 198.59375 -163.109375 200.6875 -163.296875 202.8125 -163.355469 C 202.910156 -163.359375 203.007812 -163.359375 203.105469 -163.363281 C 203.480469 -163.371094 203.859375 -163.375 204.238281 -163.375 C 204.410156 -163.375 204.578125 -163.375 204.75 -163.371094 C 204.769531 -163 204.789062 -162.625 204.804688 -162.25 C 204.8125 -161.980469 204.820312 -161.707031 204.828125 -161.4375 C 204.835938 -161.046875 204.839844 -160.65625 204.839844 -160.265625 C 204.839844 -156.949219 204.527344 -153.707031 203.925781 -150.5625 C 199.777344 -128.828125 181.949219 -111.921875 159.753906 -109.15625 C 181.949219 -106.394531 199.777344 -89.484375 203.925781 -67.75 C 204.269531 -65.964844 204.515625 -64.144531 204.667969 -62.300781 C 204.699219 -61.917969 204.726562 -61.539062 204.75 -61.15625 C 204.765625 -60.894531 204.777344 -60.628906 204.789062 -60.367188 C 204.605469 -60.363281 204.421875 -60.363281 204.238281 -60.363281 C 203.847656 -60.363281 203.457031 -60.367188 203.066406 -60.378906 C 202.996094 -60.378906 202.925781 -60.378906 202.855469 -60.382812 C 201.152344 -60.425781 199.476562 -60.554688 197.820312 -60.761719 C 175.625 -63.523438 157.796875 -80.433594 153.648438 -102.167969 C 149.5 -80.433594 131.667969 -63.523438 109.476562 -60.761719 C 107.617188 -60.53125 105.730469 -60.398438 103.816406 -60.371094 C 103.746094 -60.367188 103.675781 -60.367188 103.605469 -60.367188 C 103.570312 -60.367188 103.535156 -60.367188 103.5 -60.367188 C 103.515625 -60.050781 103.539062 -59.734375 103.5625 -59.421875 C 103.429688 -59.425781 103.292969 -59.425781 103.15625 -59.429688 C 103.007812 -57.472656 102.75 -55.542969 102.390625 -53.652344 C 98.320312 -32.335938 81.09375 -15.664062 59.496094 -12.421875 C 81.144531 -9.214844 98.421875 7.476562 102.496094 28.828125 C 106.566406 7.511719 123.792969 -9.160156 145.390625 -12.40625 C 147.441406 -12.710938 149.535156 -12.898438 151.660156 -12.957031 C 151.757812 -12.960938 151.855469 -12.960938 151.953125 -12.964844 C 152.332031 -12.972656 152.707031 -12.976562 153.089844 -12.976562 C 153.257812 -12.976562 153.429688 -12.976562 153.597656 -12.972656 C 153.597656 -12.953125 153.601562 -12.933594 153.601562 -12.914062 C 153.65625 -12.910156 153.714844 -12.910156 153.773438 -12.910156 C 153.992188 -12.902344 154.214844 -12.898438 154.4375 -12.890625 C 178.683594 -11.992188 198.671875 5.695312 203.097656 28.878906 C 207.589844 5.355469 228.105469 -12.515625 252.835938 -12.917969 C 252.898438 -12.917969 252.957031 -12.917969 253.019531 -12.921875 C 253.242188 -12.921875 253.464844 -12.925781 253.6875 -12.925781 C 254.050781 -12.925781 254.410156 -12.921875 254.769531 -12.914062 C 254.832031 -12.914062 254.894531 -12.910156 254.953125 -12.910156 C 254.980469 -12.261719 255.019531 -11.613281 255.070312 -10.972656 C 254.933594 -10.976562 254.796875 -10.980469 254.660156 -10.980469 C 254.515625 -9.023438 254.257812 -7.09375 253.894531 -5.203125 C 249.824219 16.113281 232.597656 32.785156 211.003906 36.027344 C 232.648438 39.230469 249.925781 55.925781 254 77.277344 C 258.070312 55.960938 275.296875 39.285156 296.894531 36.042969 C 298.949219 35.734375 301.039062 35.546875 303.167969 35.492188 C 303.261719 35.488281 303.359375 35.484375 303.457031 35.484375 C 303.835938 35.476562 304.214844 35.472656 304.59375 35.472656 C 304.761719 35.472656 304.933594 35.472656 305.101562 35.472656 C 305.125 35.847656 305.144531 36.222656 305.15625 36.597656 C 305.167969 36.867188 305.175781 37.136719 305.179688 37.410156 C 305.191406 37.796875 305.195312 38.1875 305.195312 38.582031 C 305.195312 41.894531 304.878906 45.140625 304.28125 48.28125 C 300.132812 70.015625 282.300781 86.925781 260.109375 89.6875 C 282.300781 92.453125 300.132812 109.359375 304.28125 131.097656 C 304.621094 132.882812 304.871094 134.699219 305.019531 136.546875 C 305.050781 136.925781 305.078125 137.308594 305.101562 137.691406 C 305.117188 137.953125 305.132812 138.214844 305.144531 138.480469 C 304.960938 138.480469 304.777344 138.480469 304.59375 138.480469 C 304.199219 138.480469 303.808594 138.476562 303.417969 138.46875 C 303.347656 138.46875 303.277344 138.464844 303.207031 138.464844 C 301.507812 138.417969 299.828125 138.292969 298.175781 138.085938 C 275.980469 135.320312 258.152344 118.414062 254 96.679688 C 249.851562 118.414062 232.023438 135.320312 209.828125 138.085938 C 207.972656 138.316406 206.082031 138.449219 204.171875 138.476562 C 204.101562 138.476562 204.03125 138.476562 203.960938 138.480469 C 203.777344 138.480469 203.59375 138.480469 203.410156 138.480469 C 203.019531 138.480469 202.625 138.476562 202.234375 138.46875 C 202.246094 138.210938 202.261719 137.957031 202.277344 137.699219 C 202.300781 137.3125 202.328125 136.925781 202.359375 136.539062 C 202.507812 134.695312 202.757812 132.878906 203.097656 131.097656 C 207.246094 109.359375 225.078125 92.453125 247.269531 89.6875 C 225.078125 86.925781 207.246094 70.015625 203.097656 48.28125 C 198.949219 70.015625 181.121094 86.925781 158.925781 89.6875 C 157.285156 89.894531 155.617188 90.019531 153.933594 90.066406 C 153.835938 90.070312 153.738281 90.070312 153.640625 90.074219 C 153.265625 90.082031 152.886719 90.085938 152.507812 90.085938 C 152.335938 90.085938 152.167969 90.085938 151.996094 90.082031 C 151.996094 90.0625 151.996094 90.042969 151.992188 90.023438 C 151.96875 90.019531 151.941406 90.019531 151.914062 90.019531 C 151.84375 90.019531 151.773438 90.015625 151.703125 90.015625 C 150.003906 89.96875 148.324219 89.84375 146.667969 89.636719 C 124.476562 86.871094 106.648438 69.964844 102.496094 48.230469 C 98.347656 69.964844 80.519531 86.871094 58.324219 89.636719 C 56.46875 89.867188 54.578125 90 52.667969 90.027344 C 52.597656 90.027344 52.527344 90.03125 52.457031 90.03125 C 52.273438 90.03125 52.089844 90.035156 51.90625 90.035156 C 51.511719 90.035156 51.121094 90.027344 50.730469 90.019531 C 50.742188 89.761719 50.757812 89.507812 50.769531 89.25 C 50.792969 88.863281 50.820312 88.476562 50.851562 88.089844 C 51.003906 86.246094 51.253906 84.429688 51.59375 82.648438 C 55.742188 60.910156 73.570312 44.003906 95.765625 41.242188 C 73.570312 38.476562 55.742188 21.570312 51.59375 -0.167969 C 47.445312 21.570312 29.613281 38.476562 7.421875 41.242188 C 5.78125 41.445312 4.113281 41.570312 2.429688 41.617188 C 2.332031 41.621094 2.234375 41.621094 2.136719 41.625 C 1.757812 41.632812 1.382812 41.636719 1 41.636719 C 0.832031 41.636719 0.664062 41.636719 0.492188 41.632812 C 0.476562 41.371094 0.464844 41.109375 0.453125 40.847656 C 0.433594 40.464844 0.421875 40.082031 0.414062 39.699219 C 0.40625 39.3125 0.398438 38.917969 0.398438 38.527344 C 0.398438 35.210938 0.714844 31.96875 1.3125 28.828125 C 5.382812 7.511719 22.609375 -9.160156 44.207031 -12.40625 C 23.242188 -15.507812 6.378906 -31.261719 1.632812 -51.648438 C 1.210938 -53.460938 0.882812 -55.316406 0.660156 -57.199219 C 0.570312 -57.941406 0.496094 -58.6875 0.441406 -59.4375 Z M 49.289062 -14.929688 C 47.332031 -39.855469 29.28125 -57.242188 4.078125 -58.152344 C 3.929688 -58.15625 3.78125 -58.160156 3.636719 -58.164062 C 3.695312 -57.421875 3.769531 -56.679688 3.863281 -55.945312 C 6.839844 -31.929688 24.636719 -15.605469 49.289062 -14.929688 Z M 99.710938 -58.015625 C 74.113281 -57.523438 56.125 -40.382812 54.144531 -15.171875 C 79.746094 -15.660156 97.734375 -32.800781 99.710938 -58.015625 Z M 151.320312 -106.484375 C 125.796875 -106.035156 107.335938 -88.640625 105.199219 -63.558594 C 130.722656 -64.007812 149.179688 -81.402344 151.320312 -106.484375 Z M 105.507812 -159.679688 C 105.5 -159.289062 105.496094 -158.898438 105.496094 -158.507812 C 105.496094 -131.390625 124.472656 -112.214844 151.5 -111.828125 C 151.511719 -112.21875 151.515625 -112.605469 151.515625 -113 C 151.515625 -140.117188 132.535156 -159.292969 105.507812 -159.679688 Z M 54.597656 -111.839844 C 81.335938 -112.554688 100.257812 -131.847656 100.257812 -158.757812 C 100.257812 -159.144531 100.253906 -159.53125 100.246094 -159.917969 C 73.507812 -159.203125 54.585938 -139.910156 54.585938 -113 C 54.585938 -112.613281 54.589844 -112.226562 54.597656 -111.839844 Z M 55.164062 -208.1875 C 55.222656 -207.441406 55.296875 -206.699219 55.390625 -205.964844 C 58.367188 -181.949219 75.160156 -166.554688 99.8125 -165.878906 C 97.855469 -190.808594 80.808594 -207.261719 55.605469 -208.171875 C 55.457031 -208.179688 55.3125 -208.183594 55.164062 -208.1875 Z M 149.859375 -207.398438 C 124.257812 -206.910156 106.773438 -190.226562 104.796875 -165.015625 C 130.394531 -165.507812 147.882812 -182.1875 149.859375 -207.398438 Z M 201.183594 -159.667969 C 174.445312 -158.953125 156.378906 -140.535156 156.378906 -113.625 C 156.378906 -113.238281 156.382812 -112.851562 156.390625 -112.46875 C 183.128906 -113.183594 201.199219 -131.597656 201.199219 -158.507812 C 201.199219 -158.894531 201.191406 -159.28125 201.183594 -159.667969 Z M 202.726562 -62.320312 C 200.597656 -87.1875 181.839844 -105.082031 156.605469 -105.839844 C 158.734375 -80.972656 177.492188 -63.078125 202.726562 -62.320312 Z M 100.226562 38.445312 C 100.234375 38.054688 100.242188 37.664062 100.242188 37.273438 C 100.242188 10.15625 80.644531 -9.648438 53.617188 -10.035156 C 53.605469 -9.644531 53.601562 -9.253906 53.601562 -8.863281 C 53.601562 18.253906 73.199219 38.058594 100.226562 38.445312 Z M 150.488281 -9.769531 C 123.75 -9.058594 105.101562 9.988281 105.101562 36.898438 C 105.101562 37.285156 105.105469 37.667969 105.117188 38.054688 C 131.855469 37.339844 150.5 18.296875 150.5 -8.613281 C 150.5 -9 150.496094 -9.386719 150.488281 -9.769531 Z M 199.917969 32.640625 C 197.957031 7.714844 180.914062 -8.667969 155.707031 -9.578125 C 155.558594 -9.582031 155.414062 -9.585938 155.265625 -9.59375 C 155.324219 -8.847656 155.398438 -8.105469 155.492188 -7.371094 C 158.46875 16.644531 175.265625 31.964844 199.917969 32.640625 Z M 251.46875 -9.804688 C 225.867188 -9.3125 208.382812 7.3125 206.402344 32.523438 C 232.003906 32.035156 249.488281 15.410156 251.46875 -9.804688 Z M 252.226562 87.394531 C 252.234375 87.003906 252.238281 86.613281 252.238281 86.222656 C 252.238281 59.105469 232.644531 39.300781 205.617188 38.914062 C 205.605469 39.304688 205.601562 39.695312 205.601562 40.085938 C 205.601562 67.207031 225.199219 87.007812 252.226562 87.394531 Z M 302.117188 38.550781 C 275.378906 39.265625 256 59.0625 256 85.972656 C 256 86.359375 256.003906 86.746094 256.011719 87.128906 C 282.75 86.417969 302.132812 66.621094 302.132812 39.710938 C 302.132812 39.324219 302.128906 38.9375 302.117188 38.550781 Z M 301.574219 135.101562 C 299.445312 110.234375 281.3125 92.886719 256.082031 92.125 C 258.207031 116.996094 276.339844 134.34375 301.574219 135.101562 Z M 206.808594 134.195312 C 232.332031 133.746094 249.910156 117.015625 252.046875 91.9375 C 226.527344 92.386719 208.945312 109.117188 206.808594 134.195312 Z M 155.070312 86.878906 C 181.8125 86.164062 200.699219 66.871094 200.699219 39.960938 C 200.699219 39.574219 200.695312 39.1875 200.683594 38.804688 C 173.945312 39.515625 155.058594 58.8125 155.058594 85.722656 C 155.058594 86.109375 155.0625 86.496094 155.070312 86.878906 Z M 105.328125 44.429688 C 107.457031 69.296875 124.710938 85.777344 149.941406 86.535156 C 147.816406 61.667969 130.5625 45.191406 105.328125 44.429688 Z M 54.175781 86.710938 C 79.695312 86.261719 97.527344 69.386719 99.664062 44.308594 C 74.144531 44.757812 56.3125 61.632812 54.175781 86.710938 Z M 3.078125 38.933594 C 29.816406 38.21875 49.445312 18.171875 49.445312 -8.738281 C 49.445312 -9.125 49.441406 -9.511719 49.429688 -9.894531 C 22.691406 -9.183594 3.066406 10.867188 3.066406 37.773438 C 3.066406 38.164062 3.070312 38.546875 3.078125 38.933594 Z M 153.214844 -2.863281 C 153.09375 -1.957031 152.945312 -1.058594 152.777344 -0.167969 C 148.625 21.570312 130.796875 38.476562 108.605469 41.242188 C 130.050781 43.910156 147.425781 59.792969 152.3125 80.476562 C 152.449219 79.398438 152.617188 78.332031 152.820312 77.277344 C 156.890625 55.960938 174.113281 39.285156 195.710938 36.042969 C 174.863281 32.957031 158.066406 17.359375 153.214844 -2.863281 Z M 153.214844 -2.863281 " fill-opacity="1" fill-rule="evenodd"/></g></g></g></g><g mask="url(#bae2398ff3)"><g transform="matrix(1, 0, 0, 1, 529, 608)"><g clip-path="url(#3fcbd44a15)"><g clip-path="url(#2011e99150)"><path fill="#1a2247" d="M 199.097656 0.902344 C 199.738281 0.855469 200.382812 0.820312 201.03125 0.792969 C 201.035156 1.015625 201.035156 1.238281 201.035156 1.460938 L 201.035156 1.464844 C 201.035156 1.886719 201.03125 2.308594 201.019531 2.730469 C 201.015625 2.953125 201.007812 3.171875 201 3.394531 C 200.105469 27.640625 182.414062 47.628906 159.230469 52.054688 C 182.757812 56.546875 200.625 77.0625 201.027344 101.792969 C 201.03125 101.855469 201.03125 101.917969 201.03125 101.976562 C 201.03125 102.117188 201.035156 102.257812 201.035156 102.398438 C 201.347656 102.417969 201.660156 102.441406 201.972656 102.46875 C 203.8125 102.617188 205.628906 102.867188 207.414062 103.207031 C 229.148438 107.355469 246.054688 125.1875 248.820312 147.378906 C 251.582031 125.1875 268.492188 107.355469 290.226562 103.207031 C 268.492188 99.058594 251.582031 81.230469 248.820312 59.035156 C 248.613281 57.394531 248.488281 55.726562 248.441406 54.042969 C 248.4375 53.945312 248.4375 53.847656 248.433594 53.75 C 248.425781 53.375 248.421875 52.996094 248.421875 52.617188 C 248.421875 52.445312 248.421875 52.277344 248.425781 52.105469 C 248.6875 52.089844 248.949219 52.078125 249.214844 52.066406 C 249.59375 52.050781 249.976562 52.035156 250.359375 52.027344 C 250.75 52.019531 251.140625 52.015625 251.53125 52.015625 C 254.847656 52.015625 258.089844 52.328125 261.234375 52.929688 C 282.550781 56.996094 299.222656 74.222656 302.464844 95.820312 C 305.566406 74.855469 321.320312 57.992188 341.707031 53.246094 C 343.523438 52.824219 345.375 52.496094 347.257812 52.273438 C 348 52.183594 348.746094 52.113281 349.496094 52.054688 C 350.136719 52.007812 350.78125 51.96875 351.429688 51.945312 C 351.429688 52.167969 351.433594 52.390625 351.433594 52.613281 L 351.433594 52.617188 C 351.433594 53.039062 351.429688 53.460938 351.417969 53.882812 C 351.414062 54.101562 351.40625 54.324219 351.398438 54.546875 C 350.503906 78.792969 332.8125 98.78125 309.628906 103.207031 C 333.15625 107.699219 351.023438 128.214844 351.425781 152.945312 C 351.425781 153.007812 351.429688 153.066406 351.429688 153.128906 C 351.429688 153.351562 351.433594 153.574219 351.433594 153.796875 C 351.433594 154.160156 351.429688 154.519531 351.421875 154.878906 C 351.421875 154.941406 351.417969 155.003906 351.417969 155.0625 C 350.769531 155.089844 350.125 155.128906 349.480469 155.179688 C 349.484375 155.042969 349.488281 154.90625 349.492188 154.769531 C 347.53125 154.625 345.601562 154.367188 343.710938 154.003906 C 322.394531 149.933594 305.722656 132.707031 302.480469 111.113281 C 299.277344 132.757812 282.585938 150.035156 261.234375 154.109375 C 282.550781 158.179688 299.222656 175.40625 302.464844 197.003906 C 302.773438 199.058594 302.960938 201.148438 303.015625 203.277344 C 303.019531 203.371094 303.023438 203.46875 303.023438 203.566406 C 303.03125 203.945312 303.035156 204.324219 303.035156 204.703125 C 303.035156 204.871094 303.035156 205.042969 303.035156 205.210938 C 302.660156 205.234375 302.285156 205.253906 301.910156 205.265625 C 301.640625 205.277344 301.371094 205.285156 301.101562 205.289062 C 300.710938 205.300781 300.320312 205.304688 299.929688 205.304688 C 296.613281 205.304688 293.367188 204.988281 290.226562 204.390625 C 268.492188 200.242188 251.582031 182.410156 248.820312 160.21875 C 246.054688 182.410156 229.148438 200.242188 207.410156 204.390625 C 205.625 204.730469 203.808594 204.980469 201.960938 205.128906 C 201.582031 205.160156 201.199219 205.1875 200.816406 205.210938 C 200.554688 205.226562 200.292969 205.242188 200.03125 205.253906 C 200.027344 205.070312 200.027344 204.886719 200.027344 204.703125 C 200.027344 204.308594 200.03125 203.917969 200.039062 203.527344 C 200.042969 203.457031 200.042969 203.386719 200.042969 203.316406 C 200.089844 201.617188 200.21875 199.9375 200.421875 198.285156 C 203.1875 176.089844 220.09375 158.261719 241.832031 154.109375 C 220.09375 149.960938 203.1875 132.132812 200.421875 109.9375 C 200.191406 108.082031 200.058594 106.191406 200.03125 104.28125 C 200.03125 104.210938 200.03125 104.140625 200.03125 104.070312 C 200.027344 104.035156 200.027344 103.996094 200.027344 103.960938 C 199.710938 103.980469 199.398438 104 199.082031 104.027344 C 199.085938 103.890625 199.089844 103.753906 199.09375 103.621094 C 197.132812 103.472656 195.207031 103.214844 193.3125 102.851562 C 171.996094 98.785156 155.324219 81.558594 152.082031 59.960938 C 148.878906 81.605469 132.1875 98.882812 110.835938 102.960938 C 132.152344 107.027344 148.824219 124.253906 152.066406 145.851562 C 152.375 147.90625 152.5625 150 152.621094 152.125 C 152.621094 152.222656 152.625 152.320312 152.628906 152.417969 C 152.636719 152.792969 152.640625 153.171875 152.640625 153.550781 C 152.640625 153.722656 152.640625 153.890625 152.636719 154.058594 C 152.617188 154.0625 152.597656 154.0625 152.574219 154.0625 C 152.574219 154.121094 152.574219 154.175781 152.570312 154.234375 C 152.566406 154.457031 152.558594 154.679688 152.550781 154.898438 C 151.65625 179.148438 133.964844 199.136719 110.78125 203.5625 C 134.308594 208.050781 152.179688 228.570312 152.582031 253.300781 C 152.582031 253.359375 152.582031 253.421875 152.582031 253.480469 C 152.585938 253.703125 152.585938 253.929688 152.585938 254.152344 C 152.585938 254.515625 152.582031 254.875 152.574219 255.234375 C 152.574219 255.296875 152.574219 255.355469 152.570312 255.417969 C 151.921875 255.441406 151.277344 255.480469 150.636719 255.53125 C 150.636719 255.394531 150.640625 255.261719 150.644531 255.125 C 148.6875 254.976562 146.757812 254.71875 144.867188 254.359375 C 123.550781 250.289062 106.878906 233.0625 103.632812 211.464844 C 100.429688 233.113281 83.738281 250.386719 62.386719 254.464844 C 83.703125 258.535156 100.375 275.761719 103.617188 297.355469 C 103.925781 299.410156 104.113281 301.503906 104.171875 303.628906 C 104.175781 303.726562 104.175781 303.824219 104.179688 303.921875 C 104.1875 304.296875 104.191406 304.675781 104.191406 305.054688 C 104.191406 305.226562 104.191406 305.394531 104.1875 305.566406 C 103.816406 305.585938 103.441406 305.605469 103.066406 305.621094 C 102.796875 305.628906 102.523438 305.636719 102.253906 305.644531 C 101.863281 305.652344 101.472656 305.65625 101.082031 305.65625 C 97.765625 305.65625 94.523438 305.34375 91.378906 304.742188 C 69.644531 300.59375 52.738281 282.765625 49.972656 260.570312 C 47.210938 282.765625 30.300781 300.59375 8.566406 304.742188 C 6.78125 305.085938 4.960938 305.332031 3.117188 305.484375 C 2.734375 305.515625 2.355469 305.542969 1.972656 305.566406 C 1.710938 305.582031 1.445312 305.59375 1.183594 305.605469 C 1.183594 305.421875 1.179688 305.238281 1.179688 305.054688 C 1.179688 304.664062 1.183594 304.273438 1.195312 303.882812 C 1.195312 303.8125 1.195312 303.742188 1.199219 303.671875 C 1.242188 301.96875 1.371094 300.292969 1.578125 298.636719 C 4.339844 276.441406 21.25 258.613281 42.984375 254.464844 C 21.25 250.316406 4.339844 232.484375 1.578125 210.292969 C 1.347656 208.433594 1.214844 206.546875 1.1875 204.632812 C 1.183594 204.5625 1.183594 204.492188 1.183594 204.421875 C 1.183594 204.242188 1.179688 204.058594 1.179688 203.871094 C 1.179688 203.480469 1.183594 203.089844 1.195312 202.699219 C 1.449219 202.710938 1.707031 202.722656 1.960938 202.738281 C 2.351562 202.761719 2.738281 202.789062 3.125 202.820312 C 4.96875 202.972656 6.785156 203.21875 8.566406 203.5625 C 30.300781 207.710938 47.210938 225.539062 49.972656 247.734375 C 52.738281 225.539062 69.644531 207.710938 91.382812 203.5625 C 69.644531 199.410156 52.738281 181.582031 49.972656 159.386719 C 49.769531 157.746094 49.640625 156.082031 49.597656 154.394531 C 49.59375 154.300781 49.589844 154.203125 49.589844 154.105469 C 49.582031 153.726562 49.578125 153.347656 49.578125 152.96875 C 49.578125 152.800781 49.578125 152.628906 49.578125 152.460938 C 49.601562 152.460938 49.621094 152.457031 49.640625 152.457031 C 49.640625 152.429688 49.640625 152.402344 49.640625 152.375 C 49.644531 152.304688 49.644531 152.234375 49.648438 152.164062 C 49.691406 150.464844 49.820312 148.785156 50.027344 147.132812 C 52.789062 124.9375 69.699219 107.109375 91.433594 102.960938 C 69.699219 98.808594 52.789062 80.980469 50.027344 58.789062 C 49.792969 56.929688 49.664062 55.042969 49.636719 53.128906 C 49.632812 53.058594 49.632812 52.988281 49.632812 52.917969 C 49.628906 52.734375 49.628906 52.550781 49.628906 52.367188 C 49.628906 51.976562 49.632812 51.585938 49.640625 51.195312 C 49.898438 51.207031 50.15625 51.21875 50.410156 51.234375 C 50.800781 51.257812 51.1875 51.285156 51.574219 51.316406 C 53.417969 51.46875 55.230469 51.714844 57.015625 52.054688 C 78.75 56.207031 95.65625 74.035156 98.421875 96.226562 C 101.1875 74.035156 118.09375 56.207031 139.828125 52.054688 C 118.09375 47.90625 101.1875 30.078125 98.421875 7.882812 C 98.21875 6.242188 98.089844 4.578125 98.042969 2.890625 C 98.042969 2.792969 98.039062 2.695312 98.039062 2.597656 C 98.03125 2.222656 98.023438 1.84375 98.023438 1.464844 C 98.023438 1.292969 98.027344 1.125 98.027344 0.957031 C 98.289062 0.941406 98.554688 0.925781 98.816406 0.914062 C 99.195312 0.898438 99.578125 0.882812 99.960938 0.875 C 100.351562 0.867188 100.742188 0.863281 101.132812 0.863281 C 104.449219 0.863281 107.695312 1.175781 110.835938 1.777344 C 132.152344 5.847656 148.824219 23.074219 152.066406 44.667969 C 155.171875 23.707031 170.925781 6.839844 191.308594 2.09375 C 193.125 1.671875 194.976562 1.347656 196.859375 1.121094 C 197.601562 1.03125 198.347656 0.960938 199.097656 0.902344 Z M 154.59375 49.753906 C 179.519531 47.792969 196.902344 29.746094 197.8125 4.539062 C 197.820312 4.394531 197.824219 4.246094 197.828125 4.097656 C 197.082031 4.15625 196.34375 4.234375 195.605469 4.324219 C 171.59375 7.304688 155.265625 25.101562 154.59375 49.753906 Z M 197.675781 100.175781 C 197.1875 74.574219 180.046875 56.585938 154.832031 54.609375 C 155.324219 80.210938 172.464844 98.195312 197.675781 100.175781 Z M 246.144531 151.78125 C 245.695312 126.257812 228.300781 107.800781 203.222656 105.664062 C 203.671875 131.183594 221.066406 149.644531 246.144531 151.78125 Z M 299.339844 105.972656 C 298.953125 105.964844 298.5625 105.957031 298.171875 105.957031 C 271.050781 105.957031 251.875 124.9375 251.492188 151.964844 C 251.878906 151.972656 252.269531 151.976562 252.660156 151.976562 C 279.78125 151.976562 298.957031 133 299.339844 105.972656 Z M 251.503906 55.058594 C 252.21875 81.800781 271.511719 100.722656 298.421875 100.722656 C 298.808594 100.722656 299.195312 100.71875 299.578125 100.710938 C 298.867188 73.96875 279.570312 55.046875 252.660156 55.046875 C 252.273438 55.046875 251.886719 55.050781 251.503906 55.058594 Z M 347.847656 55.625 C 347.105469 55.683594 346.363281 55.761719 345.625 55.851562 C 321.613281 58.832031 306.21875 75.625 305.542969 100.277344 C 330.46875 98.316406 346.921875 81.273438 347.835938 56.066406 C 347.839844 55.921875 347.84375 55.773438 347.847656 55.625 Z M 347.0625 150.320312 C 346.570312 124.722656 329.890625 107.234375 304.675781 105.257812 C 305.167969 130.859375 321.851562 148.34375 347.0625 150.320312 Z M 299.328125 201.648438 C 298.613281 174.910156 280.199219 156.839844 253.289062 156.839844 C 252.902344 156.839844 252.515625 156.84375 252.128906 156.855469 C 252.84375 183.59375 271.261719 201.660156 298.171875 201.660156 C 298.558594 201.660156 298.945312 201.65625 299.328125 201.648438 Z M 201.984375 203.1875 C 226.851562 201.0625 244.746094 182.300781 245.503906 157.070312 C 220.636719 159.195312 202.742188 177.957031 201.984375 203.1875 Z M 101.21875 100.691406 C 101.609375 100.699219 102 100.703125 102.390625 100.703125 C 129.507812 100.703125 149.3125 81.105469 149.695312 54.078125 C 149.308594 54.070312 148.917969 54.066406 148.527344 54.066406 C 121.40625 54.066406 101.605469 73.660156 101.21875 100.691406 Z M 149.433594 150.949219 C 148.71875 124.210938 129.675781 105.566406 102.765625 105.566406 C 102.378906 105.566406 101.992188 105.570312 101.609375 105.578125 C 102.320312 132.316406 121.367188 150.964844 148.273438 150.964844 C 148.664062 150.964844 149.046875 150.960938 149.433594 150.949219 Z M 107.023438 200.378906 C 131.949219 198.417969 148.328125 181.375 149.242188 156.167969 C 149.246094 156.023438 149.25 155.875 149.253906 155.730469 C 148.507812 155.789062 147.769531 155.863281 147.03125 155.953125 C 123.019531 158.933594 107.695312 175.726562 107.023438 200.378906 Z M 149.464844 251.929688 C 148.976562 226.332031 132.351562 208.84375 107.136719 206.867188 C 107.628906 232.46875 124.253906 249.953125 149.464844 251.929688 Z M 52.269531 252.6875 C 52.65625 252.699219 53.046875 252.703125 53.4375 252.703125 C 80.558594 252.703125 100.359375 233.105469 100.746094 206.078125 C 100.355469 206.070312 99.96875 206.066406 99.574219 206.066406 C 72.457031 206.066406 52.65625 225.660156 52.269531 252.6875 Z M 101.109375 302.582031 C 100.398438 275.84375 80.597656 256.460938 53.691406 256.460938 C 53.304688 256.460938 52.917969 256.464844 52.53125 256.472656 C 53.246094 283.214844 73.042969 302.59375 99.953125 302.59375 C 100.339844 302.59375 100.726562 302.589844 101.109375 302.582031 Z M 4.558594 302.035156 C 29.425781 299.910156 46.777344 281.777344 47.535156 256.542969 C 22.667969 258.671875 5.316406 276.804688 4.558594 302.035156 Z M 5.464844 207.269531 C 5.914062 232.792969 22.644531 250.375 47.726562 252.511719 C 47.277344 226.988281 30.546875 209.40625 5.464844 207.269531 Z M 52.78125 155.535156 C 53.496094 182.273438 72.792969 201.160156 99.703125 201.160156 C 100.089844 201.160156 100.472656 201.15625 100.859375 201.148438 C 100.144531 174.410156 80.851562 155.523438 53.941406 155.523438 C 53.554688 155.523438 53.167969 155.527344 52.78125 155.535156 Z M 95.230469 105.792969 C 70.363281 107.917969 53.886719 125.175781 53.128906 150.40625 C 77.996094 148.28125 94.472656 131.023438 95.230469 105.792969 Z M 52.949219 54.636719 C 53.398438 80.160156 70.273438 97.992188 95.355469 100.128906 C 94.90625 74.605469 78.03125 56.773438 52.949219 54.636719 Z M 100.730469 3.542969 C 101.441406 30.28125 121.492188 49.90625 148.402344 49.90625 C 148.789062 49.90625 149.171875 49.902344 149.558594 49.894531 C 148.84375 23.15625 128.796875 3.527344 101.886719 3.527344 C 101.5 3.527344 101.113281 3.535156 100.730469 3.542969 Z M 142.523438 153.679688 C 141.617188 153.554688 140.71875 153.410156 139.828125 153.238281 C 118.09375 149.089844 101.1875 131.261719 98.421875 109.066406 C 95.75 130.515625 79.871094 147.886719 59.1875 152.773438 C 60.265625 152.910156 61.332031 153.082031 62.386719 153.28125 C 83.703125 157.351562 100.375 174.578125 103.617188 196.175781 C 106.703125 175.324219 122.304688 158.53125 142.523438 153.679688 Z M 142.523438 153.679688 " fill-opacity="1" fill-rule="evenodd"/></g></g></g></g></svg>